<?xml version='1.0' encoding='utf-8'?>
<svg xmlns="http://www.w3.org/2000/svg" width="210mm" height="297mm" style="shape-rendering:geometricPrecision; text-rendering:geometricPrecision; image-rendering:optimizeQuality; fill-rule:evenodd; clip-rule:evenodd" viewBox="0 0 210 297"> <defs> <style type="text/css">  .fil0 {fill:none} .fil1 {fill:#DA251D} .fil2 {fill:black}  </style> </defs> <g id="Warstwa_x0020_1"> <metadata id="CorelCorpID_0Corel-Layer"/> <g id="_153399448"> <path id="_152651352" class="fil0" d="M105 61.4221c51.3729,0 93.0391,41.6679 93.0391,93.0458 0,51.3779 -41.6662,93.0458 -93.0391,93.0458 -51.3729,0 -93.0391,-41.6679 -93.0391,-93.0458 0,-51.3779 41.6662,-93.0458 93.0391,-93.0458z"/> <path id="_152651304" class="fil1" d="M105.002 61.4238c51.3746,0 93.0374,41.6646 93.0374,93.0441 0,51.3796 -41.6628,93.0441 -93.0374,93.0441 -51.3779,0 -93.0408,-41.6645 -93.0408,-93.0441 0,-51.3795 41.6629,-93.0441 93.0408,-93.0441zm-42.3428 31.1413c34.1775,-23.3726 80.8529,-14.6108 104.232,19.5717 23.3794,34.1742 14.6209,80.8462 -19.55,104.234 -34.1775,23.3726 -80.8528,14.6108 -104.232,-19.5717 -23.3793,-34.1741 -14.6208,-80.8462 19.55,-104.234z"/> <path id="_152653776" class="fil2" d="M103.26 37.2496c17.3487,0 31.418,13.9409 31.418,31.1297 0,13.0861 -8.1586,24.2792 -19.705,28.8834 -1.2364,1.9513 -2.4812,3.9076 -2.6862,5.7257 11.953,-0.0317 20.1582,4.6042 21.698,17.5653 6.004,12.5695 10.7265,27.6569 17.2787,38.7301 2.2963,3.881 4.2343,9.7166 7.887,11.6713 5.724,3.0595 11.0348,12.2229 -1.2998,9.3384 1.1965,5.774 1.9263,12.5895 -5.4674,13.4777 -4.7708,0.1433 -7.897,-4.6675 -9.8933,-12.8695 -1.758,-10.5098 -4.7092,-21.2563 -7.6387,-31.9995 1.998,31.6679 4.3576,63.4608 8.3336,95.0304 7.8386,5.6357 7.4404,9.9833 5.0774,12.8562 -3.431,2.8678 -9.6383,3.6527 -18.6218,2.3529 -12.1629,-5.809 -9.8783,-16.6238 -9.5433,-26.7604 -1.7081,-17.0888 -5.0642,-33.351 -9.5467,-49.045 -2.083,-0.1166 -4.166,-0.2316 -6.249,-0.3466 -5.3807,14.4909 -9.375,28.9834 -11.9763,43.4776 -0.2316,7.652 -0.4632,15.304 -0.6948,22.9577 -2.7212,6.2006 -8.0437,10.3749 -19.0935,10.0866 -13.0744,-0.6365 -12.7528,-5.624 -8.6785,-11.8263 3.2828,-3.1761 5.6241,-6.9155 6.5956,-11.478 0.5799,-28.0019 7.8036,-52.671 12.1496,-78.7832 1.5914,-9.3918 0.7515,-18.6085 -6.4223,-25.5657 -8.3619,-11.0131 -29.305,-16.8121 -34.1941,-30.4348 -6.9055,-12.8694 -11.2781,-26.1438 -6.5972,-40.8697 7.0321,-14.9891 21.6146,-15.9139 23.4343,-6.6088 -0.3766,8.6218 0.3716,17.0554 2.7762,25.2173 2.3929,-2.3829 5.4724,-4.0826 9.0018,-5.3274 2.1179,-0.7465 4.3792,-1.4647 6.7938,-1.803 5.3724,-0.7515 6.1606,6.3339 2.4313,8.8701 -0.8865,0.6033 -1.8614,1.1132 -2.8212,1.6431 -7.2488,3.9943 -15.434,7.2404 -17.4887,15.399 6.6639,7.5921 16.9988,9.1001 30.3765,5.5657 -0.7666,-3.0344 -2.9179,-6.3789 -4.6226,-9.6183 -3.511,-2.4379 -6.4989,-5.5641 -8.7568,-9.1884l1.2964 -0.6983c0.9999,-0.5515 2.008,-1.0814 2.9545,-1.7247 5.1725,-3.5177 3.4978,-12.8911 -3.601,-11.8979 -1.7647,0.2466 -3.4694,0.6849 -5.1541,1.2198 -0.11,-1.0599 -0.1683,-2.1347 -0.1683,-3.2228 0,-17.1888 14.0692,-31.1297 31.4179,-31.1297z"/> <path id="_152654688" class="fil1" d="M165.06 225.512c-16.2089,13.7194 -37.1653,21.9996 -60.0581,21.9996 -1.2814,0 -2.5529,-0.0366 -3.821,-0.0866l0 -18.0736c15.839,0.8232 32.0628,-3.3394 46.1604,-12.9811 3.6128,-2.4729 6.9339,-5.2125 9.97,-8.1636l7.7487 0 0 17.3053z"/> <polygon id="_152650968" class="fil1" points="33.8323,194.924 168.501,102.81 176.165,114.006 41.4993,206.126 "/> </g> </g> </svg>