<?xml version="1.0" encoding="UTF-8"?>
<svg enable-background="new 0 0 322.542 492.582" viewBox="0 0 322.542 492.582" xmlns="http://www.w3.org/2000/svg">
 <defs>
  <linearGradient id="a" x2="0" y1="492.58" y2="402.09" gradientUnits="userSpaceOnUse">
   <stop stop-color="#98d374" offset="0"/>
   <stop stop-color="#157f32" offset="1"/>
  </linearGradient>
 </defs>
 <path d="m141.71 402.09c78.226 0 141.71 20.271 141.71 45.245 0 24.977-63.486 45.246-141.71 45.246-78.225 1e-3 -141.71-20.269-141.71-45.246 0-24.974 63.487-45.245 141.71-45.245" fill="url(#a)" fill-rule="evenodd"/>
 <path d="m163.567,62.967c2.674-.057 5.406-.569 8.424-1.082 3.072-.91 7.057-2.163 9.332-2.675 1.936-.456 2.79-.341 2.562.341-.456-1.138-.228-1.821.229-2.049 .455-.285 1.593.114 2.788.569 1.082.342 2.788.911 3.813,1.708 .796.74 1.366,1.537 1.479,2.619l1.195,1.422c1.365-.17 2.674.171 3.699.398 .967.228 2.447.284 2.447,1.48-.057,1.138-1.082,2.845-2.846,5.349 .228.569.514,1.196.854,2.106 .284.74 1.252,2.22.909,2.902-.512.57-1.82.228-3.471.513-1.822-.057-4.496-.114-6.944.512-2.504.57-5.121,1.708-7.854,3.415l-18.098-4.154c.457-4.439.97-8.879 1.482-13.374z" fill="#c19b86" fill-rule="evenodd"/>
 <path d="m163.338,72.87c1.936-.74 4.326-1.537 7.172-2.163 2.789-.626 6.488-1.309 9.789-1.821 3.129-.74 7.797-1.708 8.936-1.594 .797.114-3.414,1.594-3.188,2.048 .283.114 4.383-.682 5.064-.626 .514.285-1.65.626-1.877,1.48-.342.74-.455,1.196-.113,1.992 .057.398 2.048.512 1.365.967-.91.342-4.838,1.024-5.635,1.594-.968.398-.398.967.854,1.081 1.252-.227 5.066-.967 6.602-1.366 1.195-.341 1.252-1.024 1.937-.967 .625-.171 1.877-.114 2.218.398 .172.398.172,1.593-.625,2.049-1.025.284-2.902-.114-4.725.113-2.048.171-4.211.398-6.26,1.139-2.22.683-3.928,1.423-5.977,2.675-6.031-1.195-10.243-2.333-12.861-3.415-2.731-1.251-3.415-2.447-2.676-3.584z" fill="#ae7f61" fill-rule="evenodd"/>
 <path d="m169.656,74.35c-.284-.399 2.335,1.252 3.928,1.252 1.536-.285 3.928-1.48 5.407-1.822 1.479-.398 3.357-.113 3.186.228-.398.513-3.812,1.594-5.008,2.334-1.252.512-1.536,1.309-2.617,1.081-1.309-.456-4.839-2.789-4.896-3.073z" fill="#8b5d46" fill-rule="evenodd"/>
 <path d="m180.071,76.682c.398-.682 1.765-1.365 2.334-1.365 .342.057.455.854.115,1.479-.57.341-2.164,1.082-2.563,1.138-.511-.17-.397-.796.114-1.252z" fill="#8b5d46" fill-rule="evenodd"/>
 <path d="m186.901,70.707c.284.114 1.252,1.65.91,2.163-.568.398-2.446.341-3.472.284-1.194-.284-3.187-1.138-2.902-1.252 .114-.114 3.301.342 4.269.285 .853-.285.74-1.594 1.195-1.48z" fill="#8b5d46" fill-rule="evenodd"/>
 <path d="m190.487,62.739c-1.082-1.024-2.105-1.764-3.073-2.219-1.025-.57-2.676-.398-3.188-.57-.682-.284-.967-.626-.852-1.024-.058-.512-.229-1.138.112-1.423 .114-.456-.228-.626.739-.513 .854.057 2.676.627 3.928,1.082 .969.342 1.822.797 2.562,1.366 .569.456 1.138,1.252 1.479,1.936 .285.739.568,1.195.626,1.991-.513.341-.683.456-1.138.341-.455-.113-.853-.512-1.195-.967z" fill="#fff" fill-rule="evenodd"/>
 <path d="m166.355,68.26c.854-.74 2.447-1.196 3.699-1.594 1.252-.512 3.415-1.195 4.042-.967 .342.113-1.14,1.422-1.14,1.935-.056.341 1.993.113.627.626-1.65.455-8.538,1.764-9.675,1.935-1.08-.057 1.195-1.424 2.447-1.935z" fill="#e8bdb1" fill-rule="evenodd"/>
 <path d="m190.088,64.219c1.309-.114 3.188-.114 4.553.228 1.195.114 2.391.512 2.903.967 .341.342-.171,1.537-.456,1.594-.341.113-.171-1.309-1.707-1.423-1.879-.171-7.968-.455-8.822-.398-.796-.456 1.992-.855 3.529-.968z" fill="#e8bdb1" fill-rule="evenodd"/>
 <path d="m183.772,61.259c-.685-.228-1.424-.797-1.994-.854-.854,0-1.82.285-2.902.854-1.309.341-4.438,1.422-4.154,1.708 .398,0 4.326-.911 5.862-.968 1.252-.227.911.456 1.821.513 .797-.113 2.105-.569 3.074-.513 .682-.056 1.992.74 2.161.627 .058-.228-.567-1.822-1.194-1.935-.74-.343-1.992.511-2.674.568z" fill="#e8bdb1" fill-rule="evenodd"/>
 <path d="m75.124,303.537c0,3.301-.284,6.999-.626,11.553-.569,4.383-1.479,10.416-1.821,15.026-.284,4.21-.512,7.113-.228,11.779-.113,4.61.171,9.961.854,16.506 .74,6.487 2.163,15.365 3.643,22.708 1.309,7.171 3.244,14.968 4.268,20.546 .854,5.576 1.252,9.504 1.196,12.406l17.927-.398c.626-6.317 1.024-12.008 1.195-17.073 .057-5.352-.682-8.936-.228-13.603 .285-4.895 2.504-10.017 2.675-14.058 .114-3.927-1.024-5.294-1.65-9.561-.683-4.61-1.423-10.074-2.219-17.075 5.065,3.984 9.731,7.912 14.228,12.01 4.382,3.926 7.797,7.91 12.407,12.18 4.61,4.324 9.561,9.105 14.398,13.031 4.553,3.529 9.619,6.147 13.204,9.164 3.415,2.846 5.634,6.032 7.968,8.708 2.333,2.674 4.211,5.122 5.861,7.341l14.854-13.203c-4.723-5.406-8.99-10.813-12.805-16.675-3.984-5.862-6.999-13.432-10.357-18.327-3.415-5.179-5.635-7.058-10.188-11.553-4.951-4.61-14.058-11.895-17.87-15.252-3.871-3.473-3.245-3.131-4.041-4.896-.854-1.82-.854-3.927-.456-6.089-13.943-2.846-23.96-5.75-30.676-8.707-6.716-3.246-5.806-8.197-9.334-9.335-3.641-1.023-7.625-.283-12.179,2.847z" fill="#c19b86" fill-rule="evenodd"/>
 <path d="m86.166,410.077c.739-2.162.854-4.78.341-7.854-.796-3.301-2.789-8.081-3.756-11.04-.911-3.132-1.593-4.384-1.821-7.286-.455-3.129-.342-7.626-.569-10.87-.341-3.301-.91-6.089-1.48-8.991-.683-3.188-2.39-7.059-2.276-8.993 0-1.879 1.822-4.098 2.618-2.277s1.082,8.937 1.936,12.977c.796,3.756 1.764,6.83 2.276,10.073 .113,2.96-1.024,5.578-.569,8.765 .398,3.131 2.333,6.432 3.414,10.586 1.082,4.041 1.765,10.984 2.276,14.002 .342,2.788.114,4.04-.456,3.301-.626-.799-1.252-1.595-1.934-2.393z" fill="#e8bdb1" fill-rule="evenodd"/>
 <path d="m86.052,342.977c.285-1.879.911-3.357 1.252-2.277 .17,1.083.285,4.839.57,7.969 .056,2.732.113,6.203 1.024,9.105 .967,2.789 3.073,4.609 4.781,7.626 1.593,3.017 3.87,7.172 4.667,9.618 .512,2.106.512,5.294-.683,3.644-1.594-1.879-5.008-10.927-6.943-13.943-1.878-2.903-3.13-1.879-3.984-3.757-.911-2.22-1.366-6.203-1.366-9.105-.058-3.246.17-7.002.682-8.88z" fill="#e8bdb1" fill-rule="evenodd"/>
 <path d="m162.713,367.222c-.626.968-10.301-6.773-14.286-10.245-4.154-3.413-7.569-7.114-10.016-10.472-2.562-3.585-5.691-9.562-5.008-10.472 .683-1.024 5.293,2.618 8.537,5.008 2.902,2.22 5.862,4.439 9.333,8.879 3.53,4.383 11.667,15.936 11.44,17.302z" fill="#e8bdb1" fill-rule="evenodd"/>
 <path d="m169.315,377.181c1.309.57 4.496,4.155 6.26,6.146 1.65,1.879 2.79,4.724 3.188,5.692 .112.854-.569,0-1.595-.342-1.138-.569-3.756-1.595-4.553-2.618-.854-1.195.569-2.96-.113-3.984-.91-1.081-3.7-2.276-4.211-2.96-.57-.851-.228-2.673 1.024-1.934z" fill="#e8bdb1" fill-rule="evenodd"/>
 <path d="m98.174,329.887c.342-.058 3.245,2.334 3.415,3.188 0,.568-2.219.967-2.732.568-.683-.682-1.195-3.756-.683-3.756z" fill="#e8bdb1" fill-rule="evenodd"/>
 <path d="m111.492,323.967c2.219,4.725 3.984,8.254 5.52,10.358 1.309,2.105 2.448,2.675 3.187,2.392 .74-.398.285-4.668 1.48-4.896 1.024-.397 4.382,2.335 5.464,2.505 .967,0-.114-2.219.91-2.276 .911-.283 4.725,1.822 4.667,1.252-.284-.854-4.268-2.902-5.577-5.236-1.367-2.39-2.049-4.951-2.277-8.309l-15.196-3.187c.57,2.446 1.196,4.893 1.822,7.397z" fill="#e8bdb1" fill-rule="evenodd"/>
 <path d="m101.475,376.84c-1.365-4.326-2.731-7.797-4.553-11.042-1.878-3.301-4.838-3.471-6.033-7.968-1.365-4.779-1.139-15.936-1.935-19.406-1.024-3.415-2.049-2.618-3.756-.91-1.992,1.479-4.78,7.569-6.829,10.13-2.106,2.447-3.756,4.155-5.179,4.895-.57-5.635-.684-10.586-.57-15.48-.057-4.894.626-8.593 1.139-13.317 .398-4.895 1.537-11.838 1.878-15.139 .228-3.357.17-4.951-.17-4.781 1.65-1.422 3.528-1.877 5.862-1.365 2.276.568 5.293,2.562 7.74,4.439 2.333,1.65 5.008,4.097 6.033,5.577 .854,1.364.626,2.163-.684,2.617-.057,1.821-.228,3.87.114,6.147 .171,2.105.91,5.235 1.138,7.171 .057,1.763-.569,2.562-.569,3.927-.057,1.024-.341,1.879.455,3.414 .683,1.594 2.049,3.415 3.87,5.92 .057,2.504 0,4.894.456,7.626 .398,2.617.683,5.35 1.48,8.195 .456,2.732 1.65,6.317 2.048,8.537 .285,2.106.171,2.163-.113,4.098-.285,1.764-.968,3.927-1.822,6.715z" fill="#ae7f61" fill-rule="evenodd"/>
 <path d="m83.946,316.911c.796,2.334 1.935,4.154 2.959,6.146 1.082,1.595 2.845,3.303 3.528,4.896 .398,1.536-.398,3.187 0,5.178 .456,1.993 2.106,3.985 2.732,7.059 .398,3.016-.91,10.983 0,11.154 .797-.057 2.163-3.699 4.553-11.154-1.252-1.707-2.048-3.188-2.617-4.212-.684-1.139-.911-1.537-.911-2.504 0-1.309.57-2.847.797-4.383 0-1.65-.513-2.39-.683-4.667-.398-2.333-.626-5.292-1.139-8.879l-9.219,1.366z" fill="#8b5d46" fill-rule="evenodd"/>
 <path d="m99.313,318.049c.398,2.504 1.309,4.325 2.504,5.236s3.415,1.366 4.667.455c1.024-1.139 1.593-3.131 1.707-6.602l-8.65-2.391-.455,2.391c.056.285.112.57.227.911z" fill="#ae7f61" fill-rule="evenodd"/>
 <path d="m99.768,339.391c-.74-.568-2.05-3.129-2.391-3.983-.284-.796.057-.911.796-.569 .513.398 2.333,1.936 2.619,2.846 .114.797-.455,1.877-1.024,1.706z" fill="#ae7f61" fill-rule="evenodd"/>
 <path d="m106.597,330.797c-.456.115 2.219,2.676 3.643,4.838 1.081,1.992 3.472,7.456 3.87,7.399 .285-.342-.17-6.489-1.365-8.538-1.424-2.105-5.749-3.927-6.148-3.699z" fill="#ae7f61" fill-rule="evenodd"/>
 <path d="m102.044,343.261c1.422,1.937 5.52,4.269 9.22,7.627 3.529,3.073 8.594,7.627 11.667,10.586 2.789,2.562 3.813,3.983 5.919,6.032s3.87,4.042 6.374,6.203c2.333,1.993 4.952,4.555 7.626,6.374 2.504,1.65 4.781,2.79 7.057,4.326 2.276,1.594 4.325,4.098 5.919,4.895 1.252.569 3.472.283 1.821-1.31-1.878-1.707-9.903-6.203-12.635-8.879-2.903-2.902-1.992-5.292-4.325-7.854-2.618-2.674-6.944-4.779-10.358-7.627-3.472-3.187-9.164-8.707-10.017-10.186-1.081-1.367 5.123,2.845 4.553,1.65-.683-1.424-5.862-8.252-7.854-9.732-1.992-1.765-1.878.796-4.041,0-2.504-1.024-8.082-4.668-9.903-5.009-1.991-.282-2.332.97-1.023,2.904z" fill="#ae7f61" fill-rule="evenodd"/>
 <path d="m128.964,351.513c.513,1.595 7.854,8.48 11.952,12.351 4.098,3.699 10.87,9.676 12.407,10.244 1.138.229-2.391-5.862-4.439-7.968-2.049-2.276-5.463-2.731-7.399-4.666-1.878-2.105-2.732-5.406-4.553-7.057-2.277-1.764-8.594-4.554-7.968-2.904z" fill="#ae7f61" fill-rule="evenodd"/>
 <path d="m174.778,397.158c-5.689-5.806-8.592-8.536-8.082-8.822 .456-.341 3.701,2.392 10.359,7.57-.74.397-1.48.796-2.277,1.252z" fill="#ae7f61" fill-rule="evenodd"/>
 <path d="m82.921,428.175c-.228-1.65-.398-3.017-.285-4.098 .057-1.081.683-1.025.569-2.676-.341-2.049-1.935-5.975-1.935-7.796-.285-1.65-.569-1.822 1.366-2.276 2.049-.684 7.626-1.309 10.814-1.253 2.959,0 6.488.569 7.74,1.707 1.082.911-.398,2.392-.512,4.44-.341,2.105-.854,5.008-.626,7.398 .285,2.162 1.765,3.642 2.276,5.521 .342,1.65.398,3.187.171,4.609 1.024.284 1.764,1.139 2.447,2.562 .626,1.31.967,3.699 1.252,5.634 .114,1.707.114,3.415 0,4.896 .456-.285.797-.057 1.024.455 .228.568.228,1.594.228,2.846-.228,1.023.626,2.617-.513,3.471-1.309.798-3.529.968-6.886.968-2.334-.114-4.724-.17-7.171.058-2.675.057-6.033.91-7.684.796-1.65-.227-2.162-.91-1.764-2.049-1.196-.796-2.106-1.593-2.504-2.618s-.342-1.309-.057-3.471c.114-2.276.285-5.806.74-10.358 .171-.113.285-.854.57-2.219 .229-1.539.399-3.644.74-6.547z" fill="#f0f0f0" fill-rule="evenodd"/>
 <path d="m82.808,431.02c-.626-.453-1.31-.511-2.276-.17-1.252.17-2.619.74-3.643,1.708-.967.797-2.048,2.788-1.708,3.813 .228.909 1.024,1.536 2.846,1.877-1.537,1.424-2.277,2.39-2.448,2.902-.341.342.17.57 1.309-.398 1.082-1.194 3.699-4.381 5.691-6.031 1.878-1.708 4.098-3.131 6.203-4.269 2.334.114 4.155.397 6.147.625 1.764.114 3.813,1.082 4.838.741 1.082-.343 1.365-1.993 1.308-2.79-.113-1.081-.739-2.846-2.504-2.846-2.162-.057-5.008.969-9.391,3.074-2.104.57-4.21,1.139-6.372,1.764zm-2.846,1.083c-1.138.283-1.821.682-2.276,1.422-.683.74-.683,2.05-.626,2.847 .228.625.512.966 1.479,1.023 .683-.797 1.082-1.536 1.821-2.219 .683-.798 1.081-1.424 1.822-2.105-.741-.286-1.48-.627-2.22-.968zm11.61-2.903c.854-.512 3.756-1.366 5.179-1.65 1.252-.397 2.048-.397 2.618,0 .512.284.341,1.365.398,1.935-.057.513.398.911-.797,1.195-1.309-.058-6.033-.911-7.114-1.023-1.137-.287-1.308-.23-.284-.457z" fill-rule="evenodd"/>
 <path d="m80.532,447.526c.113-1.822.17-3.473.398-5.407 .171-2.048.228-3.756.626-5.976 .284-2.275.683-4.78 1.195-7.513 .796-1.593 2.048-2.96 3.528-3.87 1.537-1.252 3.585-2.447 5.464-2.049 1.593.455 2.674,2.334 4.553,4.724 1.935,2.333 4.724,6.204 6.375,8.31 1.252,1.707 1.708,1.48 1.821,2.618 .114,1.081-.455,4.382-.854,4.438-.569-.227-1.366-3.301-2.618-4.609-1.537-1.479-3.756-3.072-5.749-3.016-2.049,0-3.642,1.081-6.09,3.244-2.56,2.048-5.292,5.008-8.649,9.106z" fill-rule="evenodd"/>
 <path d="m83.206,453.445c2.276-2.447 4.496-4.44 6.887-5.977 2.333-1.593 5.122-2.959 7.057-3.472 1.65-.683 2.163-.511 3.7-.17 1.593.17 3.187,1.023 5.463,1.935l.114.513c.284-.114.455,0 .739.796 .171.57.456,1.822.626,3.301-1.934-1.194-3.358-2.162-4.894-2.674-1.537-.627-2.048-1.48-3.927-1.024-2.219.283-5.52,1.593-8.139,3.073-2.675,1.365-5.064,3.13-7.398,5.292-.057-.512-.114-1.024-.228-1.593z" fill="#404040" fill-rule="evenodd"/>
 <path d="m83.604,454.697c.057-.398 1.082-1.252 2.845-2.334 1.708-1.195 5.18-3.643 7.797-4.496 2.562-1.023 5.123-1.65 7.228-1.422 1.765.228 3.358,1.536 4.326,2.39 .91.626 1.65.969 1.764,1.253 .797,1.366.797,2.332.228,3.129-.739.569-1.821,1.025-4.097,1.366-2.675.172-7.399.058-10.415.284-3.017.171-5.919.741-7.399.798-1.537,0-2.504-.4-2.277-.968z" fill-rule="evenodd"/>
 <path d="m82.41,412.354c.284.057.967,1.536 2.049,2.902 .854,1.024 3.016,3.243 3.415,4.269 .17.854-1.139,1.194-1.765,1.877-.797.685-1.992,2.504-2.276,2.618-.398-.114.113-1.479.228-2.332-.228-.911-.285-1.48-.626-2.562-.513-1.252-.968-3.472-1.139-4.496-.342-1.196-.228-2.39.114-2.276z" fill="#c0c0c0" fill-rule="evenodd"/>
 <path d="m81.897,447.64c.911-1.14 2.106-2.392 3.585-3.529 1.537-1.479 4.325-3.473 5.293-3.757 .626-.283-1.196,1.367-1.082,2.335-.057.739.569,1.82 1.423,2.788-1.537.683-3.017,1.707-4.212,2.846-1.309,1.082-2.504,2.504-3.585,4.04-.91-.683-1.366-1.479-1.593-2.161-.227-.797-.17-1.651.171-2.562z" fill="#c0c0c0" fill-rule="evenodd"/>
 <path d="m99.37,419.582c0,1.252.17,4.041-.342,4.837-.683.513-2.732-1.138-3.529-1.422-.967-.343-1.708-.798-1.593-.91-.057-.286 1.48-.513 2.162-.685 .741-.284 1.367-.17 1.878-.739 .114-.625-.512-2.674-.341-3.072 .057-.569.626-.513 1.024-.057 .228.226.626.91.741,2.048z" fill="#c0c0c0" fill-rule="evenodd"/>
 <path d="m182.006,389.304c-1.082-.228-2.561.114-4.439,1.252-2.105,1.024-5.178,2.845-7.057,5.236-1.764,2.219-3.072,5.121-3.699,8.479 1.194,2.105 2.902,4.667 5.805,7.684 2.789,2.788 6.944,6.942 10.7,10.073 3.471,3.017 7.569,5.805 10.757,8.593 3.016,2.619 5.635,4.725 8.082,7.627 2.504,2.732 4.836,6.944 6.771,9.334 1.652,2.106 2.163,3.187 3.7,4.098 1.65.569 3.471.911 5.236.797 1.423-.058 2.617-.398 3.586-1.023-.229-5.237-.57-9.847-1.025-13.83-.627-3.984-1.025-6.83-2.277-10.074-1.479-3.301-4.098-6.658-5.69-9.847-1.65-3.357-3.017-7.057-4.097-10.017-1.195-3.129-1.31-5.234-2.791-8.309-1.593-3.472-5.063-8.765-6.486-10.813-1.594-1.879-1.765-1.082-2.96-.682-1.423.055-3.301.966-5.009,1.877-1.99.911-3.641,1.935-5.805,3.301-.569-1.023-1.024-1.822-1.593-2.39-.628-.682-1.195-1.137-1.709-1.366z" fill="#f0f0f0" fill-rule="evenodd"/>
 <path d="m197.43,387.882c.398-.969 3.017-2.221 4.326-2.221 .908-.114.796.342 1.877,1.82 1.082,1.424 2.561,3.644 4.439,6.66 1.537,2.846 4.609,8.081 5.293,10.243 .398,1.879-1.594.513-2.049,1.367-.627.455-1.537,1.08-.968,2.73 .569,1.538 2.163,3.985 4.325,7.343 2.049,3.357 5.577,8.252 7.513,12.464 1.708,3.982 2.674,7.684 3.13,11.325 .285,3.473-.568,7.513-.797,9.676-.284,1.82-.398,1.82-.797,2.163-.739.227-1.821.455-2.332,0-.57-.513-.456-1.083-.514-3.017-.283-2.277-.229-5.806-.682-9.277-.513-3.642-1.424-7.854-2.504-11.098-1.252-3.131-3.246-5.578-4.44-7.798-1.081-2.447-2.276-4.154-2.96-6.43-1.08-2.392-1.991-4.896-2.959-7.515-.911-2.73-1.65-6.031-2.674-8.593-1.31-2.846-3.416-5.521-4.553-7.171-1.25-1.705-3.016-1.875-2.674-2.671z" fill-rule="evenodd"/>
 <path d="m198.682,387.882c-.284-.854 1.138-1.31 1.877-1.367 .513-.171.4-.854 1.652.797 1.308,1.536 4.098,5.862 5.52,8.594 1.082,2.504 2.049,7.057 1.821,7.057-.398-.341-1.879-5.121-3.131-7.284-1.308-2.105-3.413-3.357-4.553-4.609-1.364-1.368-3.014-2.506-3.186-3.188z" fill="#404040" fill-rule="evenodd"/>
 <path d="m190.829,416.281c-.172-1.196.682-3.131.398-5.577-.455-2.733-1.992-5.977-2.846-8.879-1.025-2.788-2.959-8.31-2.504-7.569 .682.569 4.211,8.366 5.748,11.325 1.023,2.79 1.593,3.87 1.707,5.862-.057,1.936-.627,4.609-1.025,5.578-.512.569-1.366.397-1.478-.74z" fill="#c0c0c0" fill-rule="evenodd"/>
 <path d="m167.836,403.93c1.364-2.674 2.332-3.983 2.902-4.154 .398-.17.112,1.991.455,3.187 .341,1.025.797,2.22 1.594,2.959 .682.57 1.707.114 2.219.854 .342.455-.74,2.163-.171,2.675 .284.513 1.195,1.594 2.731.398 1.366-1.366 5.521-7.968 6.317-8.423 .569-.513-1.138,2.902-1.82,5.008-.797,1.879-2.277,5.065-2.049,6.261 .112.968 2.161.057 3.301-.341 .909-.57 2.505-3.358 2.788-2.903 .172.228-1.479,3.983-1.424,4.895 .115.797.742.057 1.65,0 .685-.284 2.676-1.935 2.904-1.195 .113.685-.798,3.587-1.652,5.18-.908,1.479-2.275,2.562-3.868,3.471-1.538-1.194-2.902-2.617-4.724-4.267-1.766-1.708-3.871-3.415-5.636-5.578-1.933-2.279-3.697-4.953-5.517-8.027z" fill="#c0c0c0" fill-rule="evenodd"/>
 <path d="m210.292,412.98c-1.08.74-2.219,1.195-3.642,1.365-1.536.114-3.301.341-5.065-.625-1.707-.969-3.529-3.074-5.235-5.692-.229,3.472-.569,6.432-.798,8.651s.057,3.415-1.139,4.895c-1.479,1.309-3.869,2.561-7.397,3.529 1.422-.57 2.446-1.708 2.845-3.188 .398-1.536.456-5.464-.455-6.089-1.195-.968-4.951,0-5.748,1.365-.854,1.366-.171,3.302 1.422,6.432-1.82-.114-3.413.626-4.324,1.765-1.138,1.08-2.39,4.325-1.764,5.349 .512.797 3.869,1.253 5.234.513 1.197-.854 2.051-2.561 2.334-5.35 .342-.229 1.081-.057 2.221.74 .967.739 2.617,1.991 4.268,3.527 1.707,1.366 3.586,3.245 5.406,4.953 1.537,1.479 3.017,3.357 4.439,4.553 1.31,1.023 3.018,2.845 3.814,2.163 .738-.911.625-4.27.567-7.002-.284-2.845-1.763-6.716-1.593-9.39 .229-2.846 1.537-5.122 2.846-6.602 .967-1.537 2.447-2.22 3.813-2.277l-2.049-3.585zm-23.904,10.813c-.909-.057-2.105-3.357-2.049-4.44-.057-1.138 1.424-2.048 2.277-2.105 .683-.398 2.447-.057 2.447,1.025-.17,1.138-1.878,5.18-2.675,5.52zm-2.275.854c-.627-.285-2.447,1.708-2.846,2.902-.569.967-.285,2.163.228,2.675 .398.343 1.991.114 2.561-.683 .341-1.081.512-4.552.057-4.894z" fill-rule="evenodd"/>
 <path d="m206.194,442.689c.627,1.08 1.025,1.08 1.424-.229 .17-1.536-.057-6.773.625-7.797 .627-1.139 2.164,2.106 3.301,1.82 .911-.398 1.48-2.788 2.619-3.471 1.08-.854 2.277-1.024 3.813-.968 .854,2.676 1.31,5.521 1.367,7.911-.115,2.446-1.252,5.18-1.197,6.887 .172,1.365 1.367,1.65 1.596,2.39-.115.683-.57,1.708-1.596,2.221-1.138.511-3.243.455-4.553.056-1.479-.568-2.674-2.391-3.813-3.699-1.252-1.479-2.447-3.186-3.586-5.121z" fill="#c0c0c0" fill-rule="evenodd"/>
 <path d="m218.489,426.126c-.115.341 1.593,3.017 2.275,6.26 .569,3.188 1.138,10.813 1.48,11.896 .227.683.17-4.609.057-6.887-.229-2.39-.513-4.951-1.082-6.773-.797-1.934-2.73-4.894-2.73-4.496z" fill="#404040" fill-rule="evenodd"/>
 <path d="m132.379,16.298c-1.708-.342-3.472-1.252-5.065-2.504-1.593-1.365-4.269-3.13-4.724-5.293s-.114-6.544 1.252-7.683c1.081-1.422 2.39-.796 5.463.114 2.959,1.025 7.057,2.561 12.293,5.463 4.155-1.935 7.683-3.414 11.041-4.211 3.13-1.024 5.521-1.536 8.48-.854 2.846.456 6.828,3.302 9.105,4.61 2.164,1.309 3.814,2.391 4.496,3.244 .57-.228 1.31-.113 1.765.113 .513.228 1.025.968 1.31,1.537 .057.456.114.797-.284,1.252 1.138,1.31 2.161,3.017 3.072,5.351 .796,2.162 1.879,4.496 1.937,8.081-.058,3.472-.398,8.992-1.937,12.862-1.765,3.757-4.212,6.886-7.968,9.619-.854-2.163-2.275-4.554-4.041-7.399-1.934-3.017-4.609-7-6.715-9.789-2.163-2.789-4.041-5.35-5.862-7.228-3.472-.967-6.603-2.163-10.244-3.813-3.586-1.708-7.171-3.699-10.985-5.976-.512.285-1.138.456-1.422.967-.512.399-.683.911-.967,1.537z" fill="#8f8261" fill-rule="evenodd"/>
 <path d="m129.419,1.615c2.391,1.024 4.553,1.935 6.716,2.959 2.162.967 4.097,1.821 6.032,2.789 1.195.739 2.276,1.878 3.871,3.642 1.593,1.707 5.122,6.375 4.894,6.545-.626-.17-6.203-5.577-7.968-6.545s-1.764,1.195-2.618.968c-1.082-.398-1.309-1.423-3.074-3.074-1.877-1.878-4.495-4.097-7.853-7.284z" fill="#c9c7a1" fill-rule="evenodd"/>
 <path d="m128.167,1.216c-.854-.341-1.65-.626-2.391-.398-.967-.17-1.708.114-2.219,1.082-.513,1.309-1.252,3.813-.683,5.748 .342,1.594 1.935,2.96 3.472,4.326 1.593,1.366 3.244,2.504 5.577,3.642 .057-.228.341-.512.854-.854 .341-.455.911-.967 1.708-1.536-1.082-.911-1.822-2.277-2.675-3.472-.74-1.422-1.594-3.13-2.106-4.496-.626-1.538-1.139-2.733-1.537-4.042z" fill="#73694f" fill-rule="evenodd"/>
 <path d="m175.69,37.129c-1.31-3.7-3.188-7.343-5.863-10.928-2.902-3.87-9.504-9.164-10.357-11.042-.91-1.935.854-1.935 5.293,0 2.162-1.309 3.87-2.333 5.748-3.073 1.65-.967 3.699-1.479 4.609-1.537 .627,0 1.424.171 0,1.423-1.707,1.195-7.512,3.585-8.821,5.179-1.31,1.252-.228.967 1.252,2.902s5.521,6.659 7.285,8.253c1.424,1.195 1.821.625 2.505-.398 .738-1.196 1.65-5.919 2.105-6.033 .283-.171.171,3.529-.114,5.18-.513,1.479-1.765,3.016-1.991,4.61-.342,1.65.967,3.073.854,4.496-.284,1.138-1.082,2.504-1.537,2.789-.513.056-.685-.399-.968-1.821z" fill="#73694f" fill-rule="evenodd"/>
 <path d="m133.346,59.21c.285-2.504.228-4.154-.398-5.179-.74-1.024-1.48-.171-3.073-.968-1.822-.967-5.806-3.301-6.886-4.61-1.082-1.423.398-3.188.74-4.211 .285-1.196.683-2.105.968-2.959 0-1.196-.342-2.789-.171-3.472 .114-.854.456-1.195 1.024-1.252-.569-.967-.74-1.992-.284-3.073 .398-1.195 1.195-2.276 2.618-3.471-1.138-.342-1.878-.911-2.219-1.708-.398-.968-1.082-2.277-.285-3.074 .569-.797 1.878-1.309 3.927-1.536-.228-1.366-.114-2.562.114-4.041 .113-1.423.739-3.87 1.252-4.497 .398-.74.911-.569 1.537.513l2.675-2.447c1.309,1.081 2.959,2.276 4.724,3.358 1.65.854 3.301,1.764 6.033,2.959 2.846,1.081 6.033,2.39 10.416,3.927 .682.569 1.821,1.764 3.415,3.586 1.479,1.821 3.471,4.211 5.748,7.398 1.366-.228 2.504,0 3.187.456 .627.341.797,1.082.968,2.22 0,1.081-.113,3.471-.113,4.325-.058.626-.058.626 0,0 1.309,1.138 2.162,2.447 2.789,3.472 .568,1.139.683,1.992.568,3.017-1.365.739-2.219,1.935-3.187,3.585s-1.593,4.724-2.106,6.375c-.512,1.422-.797,2.22-.854,2.391-.627,1.252-1.195,2.958-1.707,4.894-.683,1.935-1.025,4.098-1.65,6.716-3.813-2.106-7.399-3.756-10.757-4.724-3.472-1.082-6.659-.057-9.789-1.309-3.192-1.482-6.264-3.473-9.224-6.661z" fill="#c19b86" fill-rule="evenodd"/>
 <path d="m125.663,38.096c-.74-.228-.797-.398-.797-.513-.228-.285.057-.398.228-.569 0-.171.569-.285.626-.341 .113-.228-.285-.513-.114-.627-.228-.284-.228-.455 0-.512 .114-.285.626-.285 1.537,0 .91.341 2.333,1.139 3.585,2.163 1.024.682 2.39,2.731 2.333,2.845-.456-.057-2.619-1.48-3.871-1.878-1.193-.397-2.958-.512-3.527-.568z" fill="#7f5964" fill-rule="evenodd"/>
 <path d="m126.63,37.129c.228.056.513.056 1.082.227 .455.057 1.765.741 1.935.741-.17-.171-.854-.684-1.366-.854-.398-.285-.854-.456-1.138-.513-.341-.056-1.024-.228-.968-.056-.113.055.114.284.455.455z" fill="#73403f" fill-rule="evenodd"/>
 <path d="m127.882,26.542c-.569-.398-1.593.17-1.536-.057-.057-.341.341-1.252.967-1.423 .341-.455 1.195-.398 1.708-.057 .456.342.626,2.05 1.138,2.732 .399.626 1.48,1.252 1.48,1.423-.228-.057-1.536-.797-2.162-1.138-.57-.626-1.253-1.195-1.595-1.48z" fill="#e8bdb1" fill-rule="evenodd"/>
 <path d="m128.11,29.161c-.341-.455-1.308-1.081-1.138-1.195 .114-.341 1.423-.171 1.935.057 .171.228-.284.967.399,1.593 .569.512 3.472,1.195 3.87,1.594 .285.171-.455,0-1.537.341s-4.553,1.366-4.951,1.309c-.513-.228 1.422-2.105 1.821-2.561-.001-.683-.057-.854-.399-1.138z" fill="#ae7f61" fill-rule="evenodd"/>
 <path d="m130.159,22.672c.57-.739.854-1.252 1.48-1.536 .398-.626 1.139-.796 1.537-.74 .171.114.456.513.626,1.423 .114.797.114,2.618.456,3.7 .284.91.398,1.764 1.195,2.333 .569.398 1.082.967 2.846.854 1.594-.228 4.041-.626 7.114-1.65-.398.341-.398.796.228,1.138 .455.285 1.878.513 2.959.911 .968.284 1.992.626 3.528,1.252 1.423.455 3.585,1.422 5.407,2.219 1.65.683 3.244,1.537 4.781,2.333 .17.341 0,.626-.968.626-1.024-.057-2.96-.398-4.496-.797-1.65-.626-3.415-2.219-4.837-2.618-1.593-.626-3.188-.341-4.098-.455-1.138-.399-.171-.74-1.479-.797-1.423-.113-4.382.342-6.034.285-1.65-.285-2.788-1.309-3.642-1.309-.968-.113-1.024.683-1.48.854-.683,0-1.48-.228-1.935-.682-.626-.513-.74-1.765-1.195-2.22-.512-.683-1.366-.569-1.479-1.195-.228-.683.456-1.878.512-2.504-.115-.571-.456-1.254-1.026-1.425z" fill="#ae7f61" fill-rule="evenodd"/>
 <path d="m133.744,53.121c1.082-.285 2.732-1.024 4.952-1.594 2.333-.91 7.17-2.675 8.138-2.675 .569-.057-2.391,1.651-4.041,2.675-1.764.968-4.269,1.651-5.749,2.675-1.536.967-2.447,1.65-2.958,2.675-.057-.456-.228-.967-.285-1.537-.113-.682-.569-1.536-.455-1.878 0-.399.057-.512.398-.341z" fill="#ae7f61" fill-rule="evenodd"/>
 <path d="m136.363,56.365c1.309-1.196 3.073-2.333 5.52-3.415 2.333-1.195 6.602-2.504 8.822-3.301 2.105-1.082 3.301-1.65 3.813-2.333 .854.17 1.765.284 3.188.341 1.081.057 3.072.113 4.666-.285 1.594-.625 3.301-1.593 5.121-3.129-.739,1.081-1.307,2.39-1.934,4.155-.854,1.536-1.65,4.268-1.766,5.805 .058,1.536 2.106,2.675 1.538,3.187-.796.114-4.61-.227-6.204-1.023-1.65-.911-2.789-3.074-3.643-3.643-.91-.626-1.309.285-1.878.341-.74-.228-.967-1.308-2.447-.626-1.708.74-5.008,3.245-7.057,5.065-2.163,1.65-4.041,3.472-5.634,5.236-1.139-.796-2.22-1.479-2.789-2.048-.683-.683-1.082-1.196-1.195-1.765 .056-.171.17-.569.569-.967 .228-.457.74-.913 1.31-1.595z" fill="#ae7f61" fill-rule="evenodd"/>
 <path d="m141.542,60.235c2.789-1.139 5.293-1.992 7.513-2.562 2.333-.683 6.089-1.65 5.577-1.138-.967.341-8.252,2.675-10.245,3.699-1.934.854-3.13,1.708-1.593,1.935 1.366,0 6.83-.228 9.619-.683 2.674-.398 6.829-1.935 6.317-1.537-.74.285-7.171,2.391-10.073,3.245-3.073.797-5.464,1.195-7.626,1.423l-1.651-1.537c0-.455.228-.796.684-1.252 .283-.569.852-1.024 1.478-1.593z" fill="#ae7f61" fill-rule="evenodd"/>
 <path d="m157.363,68.032c.626-.456 1.31-1.024 2.276-1.48 .798-.569 1.822-1.252 3.074-1.821-.342.91-.797,1.821-1.366,2.504s-1.366,1.252-2.163,1.707c-.568-.284-1.195-.569-1.821-.91z" fill="#ae7f61" fill-rule="evenodd"/>
 <path d="m157.706,41.396c.341-.626 1.194-1.365 2.333-1.992 .91-.739 2.162-1.935 3.3-2.049 .854-.398 2.051.057 2.732.513 .683.512 1.594,1.765 1.422,2.219-.398,0-3.129-1.024-3.584-.854-.683.228.229,2.049-.115,2.391-.682.057-2.104-1.082-2.73-.968-.57,0-.57,1.196-.911,1.594-.569.285-1.765.285-2.048.228-.515-.285-.798-.569-.399-1.082z" fill="#635222" fill-rule="evenodd"/>
 <path d="m161.631,44.868c-.455.057 1.252-.284 2.05-.797 .909-.682 2.276-2.675 2.788-2.675 .342-.057-.341,1.708-.968,2.447-.796.57-3.699.911-3.87,1.025z" fill="#635222" fill-rule="evenodd"/>
 <path d="m155.998,28.25c-.626-.17-3.358-1.992-3.585-2.391-.341-.74.854-.797 1.593-.797 .512.228 1.366.513 1.878,1.31 .284.569.625,1.708.114,1.878z" fill="#e8bdb1" fill-rule="evenodd"/>
 <path d="m151.957,29.445c-2.618-.398-4.041-.854-4.894-1.138-.74-.285-.398-.911.113-.797 .228-.114 1.366.057 2.106.513 .683.341 1.252.739 1.935,1.422h.74z" fill="#e8bdb1" fill-rule="evenodd"/>
 <path d="m163.793,35.535c.456-.228 1.65-.341 2.505-.113 .741.17 1.252.682 1.765,1.308 .455.569.739,2.22.627,2.333-.344-.17-1.367-1.708-2.164-2.163-.854-.341-2.732-.171-3.016-.171-.627-.341-.172-1.024.283-1.194z" fill="#e8bdb1" fill-rule="evenodd"/>
 <path d="m156.509,43.161c-.512-.057-1.366,1.48-1.479,1.992-.114.456-.285.398 1.024.683 1.081,0 5.918.398 6.204.284 .057-.17-3.984-.398-4.896-.91-.909-.626-.681-2.106-.853-2.049z" fill="#e8bdb1" fill-rule="evenodd"/>
 <path d="m161.405,41.909c-.229,0 .512,1.195.91,1.423 .17-.057.968-.228.854-.513-.171-.341-1.708-1.081-1.764-.91z" fill="#e8bdb1" fill-rule="evenodd"/>
 <path d="m164.59,40.087c-.341.171.058.683.285,1.082 .285.114.967-.284 1.139-.341-.172-.342-1.309-.797-1.424-.741z" fill="#e8bdb1" fill-rule="evenodd"/>
 <path d="m134.883,31.551c.341-.398 1.024-1.138 1.821-1.138 .455,0 .228.739 1.765,1.138 1.536.228 6.544.17 7.796.456 1.025.228.569.569-.91.796-1.537,0-6.26-.512-7.797-.456-1.708-.113-1.252.285-1.708.342-.626-.114-.739-.57-.967-.683-.228-.285-.455-.228 0-.455z" fill="#e8bdb1" fill-rule="evenodd"/>
 <path d="m128.907,23.753c-.171-.739-.228-1.707-.171-2.675-.057-1.081.228-2.788.398-3.585 .228-.967.398-1.65.74-2.049 .341-.512.626-.683 1.082-.74 .171-.17.171.057.683.683 .398.456 1.537,1.822 2.333,2.562 .569.513.796.74 1.992.911 1.252,0 3.471-.569 5.122-.17 1.252.17 2.22,1.423 3.358,2.219 .967.626 2.504,1.423 3.301,2.162 .683.74.968,1.537.854,2.391 2.675,1.48 5.065,3.017 7.626,4.61 2.447,1.537 4.781,3.13 7.228,4.781l-1.194.398c-3.131-2.219-6.033-3.927-8.48-5.35-2.619-1.423-4.781-2.561-6.716-3.188-2.959.911-5.065,1.821-6.943,2.106-1.822.228-2.96.456-3.871.057-1.082-.398-1.935-1.252-2.333-2.333-.512-1.366-.512-4.041-.683-4.951-.398-1.025-.398-1.196-1.082-.74-.797.341-1.878,1.308-3.244,2.901z" fill-rule="evenodd" stroke="#000" stroke-miterlimit="10" stroke-width=".036"/>
 <path d="m147.859,25.063c-.569.741-2.391,1.423-4.154,2.049-1.822.456-5.293,1.366-6.716,1.196-1.48-.285-1.878-1.196-2.276-2.277-.513-1.195-1.252-3.358-.683-4.325 .398-1.081 2.106-1.764 3.358-2.048 1.252-.569 2.39-.626 3.643-.398 .853.285 1.423,1.252 2.333,2.049 .911.341 1.935.796 2.846,1.365 .795.681 1.934,1.478 1.649,2.389z" fill="#7f4008" fill-rule="evenodd"/>
 <path d="m135.964,20.851c.341-.967 2.219-.854 3.244-.967 .854,0 1.423.057 2.163.626 .512.228.854.967 1.708,1.593 .682.569 3.073,1.252 3.244,2.049 .057.626-1.821,2.163-2.562,2.163-.91-.228-1.422-2.276-2.447-2.618-1.195-.342-3.415.967-4.269.626-.967-.512-1.536-2.846-1.081-3.472z" fill="#a16121" fill-rule="evenodd"/>
 <path d="m144.387,23.583c.342,0 1.024.114 1.196.569 0,.399-.968.968-1.139,1.253-.455-.171-.796-.854-.796-1.139-.228-.455.455-.683.739-.683z" fill="#f88011" fill-rule="evenodd"/>
 <path d="m129.134,22.274c-.512-.284-.341-1.593-.113-2.618 .228-1.195.683-3.245 1.365-3.7 .513-.512.741.456 1.31,1.139 .398.513 1.195,1.537 1.309,2.219-.114.513-.911.513-1.48,1.082-.854.342-1.878,1.992-2.391,1.878z" fill="#7f4008" fill-rule="evenodd"/>
 <path d="m130.785,17.607c.057-.114.854.91.854,1.309-.341.285-.797.968-1.138.968-.342-.17-.17-.854-.114-1.195-.057-.57.227-1.082.398-1.082z" fill="#a16121" fill-rule="evenodd"/>
 <path d="m66.587,305.584c.057-2.617.057-5.291 0-8.252-.17-3.131-.456-5.577-.398-9.334 0-3.756.114-7.34.569-12.918 .456-5.977 1.252-15.595 1.936-21.4 .398-5.804.968-8.877 1.082-12.918 .057-4.325-.911-8.196-.513-11.837 .228-3.813.968-6.431 1.992-10.074 .967-3.813 2.219-7.626 3.756-12.066l27.147-2.846 45.587,16.164c-.113,3.984-.17,7.513-.17,10.585-.17,2.846 0,5.008-.17,7.57-.285,2.561-.569,5.179-1.082,8.082-.626,2.902-.854,6.773-1.764,8.764-.911,1.707-2.049,2.391-3.415,1.82-1.252,4.725-2.219,9.164-2.902,13.318-.683,3.984-.796,6.431-1.252,11.098-.854,4.553-1.822,11.326-2.675,16.391-.797,5.123-1.651,10.188-2.333,13.432-.854,2.96-1.65,4.324-2.391,4.324l-1.252,7.57-4.496-.568c-2.96-.513-6.034-.854-8.594-1.252-2.618-.398-5.065-.398-7.569-.911-2.789-.739-5.862-2.22-8.594-2.675-2.846-.456-5.407-.456-7.911,0-2.732.398-5.919,2.049-7.57,2.504-1.65.171-1.765.455-2.333-.91-.626-1.594-1.366-5.408-1.764-7.684-.456-2.39-1.025-4.495-1.252-6.316-1.878.455-3.585.625-5.578.738-2.05,0-3.928-.057-6.091-.399z" fill="#c9c7a1" fill-rule="evenodd" stroke="#c9c7a1" stroke-miterlimit="10" stroke-width=".036"/>
 <path d="m73.36,225.338c1.593-2.163 4.496-5.122 8.708-8.423 4.269-3.358 9.618-7.513 16.504-12.008-3.642.569-7.285,1.081-11.154,1.536-3.984.341-7.797.854-12.066,1.082-.455.854-1.138,2.049-1.821,4.439-.796,2.276-1.935,5.919-2.504,8.764-.74,2.618-1.195,5.008-1.366,7.171-.114,1.992 0,3.016.341,5.236 .057,2.219.228,4.951.285,7.968-.171,2.561-.342,4.781-.74,8.878-.569,4.269-1.252,11.211-1.593,15.994-.456,4.438-.398,7.854-.513,10.927-.17,2.845-.683,4.097-.626,7.058-.113,2.959-.17,6.544.057,10.756 .114.229.74-.17 1.65-1.195 .797-1.309 3.017-4.496 3.813-5.18 .456-.568-.057-1.309.228,1.707 .284,2.902.91,7.911 1.65,15.48 .512.114 1.138-.057 1.878-.057 .683-.113 1.479-.284 2.39-.512-.056-5.236-.17-9.789-.341-14.514-.285-4.723-.911-9.959-1.024-13.316-.513-3.586-.569-6.09-.398-7.285 .284-1.139 1.537.342 1.992.057 .228-.797-.512-2.617-.057-3.244 .398-.513 2.561.513 2.333-.227-.512-1.082-4.098-3.699-4.837-5.237-.854-1.65-.285-3.129.398-3.756 .569-.739 3.073.627 2.903-.284-.626-1.082-4.439-3.984-5.293-5.407-.854-1.593-.512-3.415.341-3.7 .74-.398 2.846,2.219 4.098,1.935 .967-.512.854-2.845 2.504-3.699 1.536-.911 5.463-1.139 6.716-1.537 .91-.626.398-1.195 0-1.708-.513-.739-3.813-1.366-1.993-1.878 1.878-.512 12.123-1.138 13.147-1.252 .626-.113-5.407-.113-7.796-.228-2.334-.512-5.008-1.536-5.805-2.219-1.025-.854-1.196-1.878.398-1.992 1.536-.171 6.089.342 8.821,1.082 2.505.626 3.301,1.878 6.317,2.448 2.675.398 9.391.626 10.7,0 1.309-.968-1.48-2.789-2.845-4.554-1.65-1.878-5.008-4.041-6.09-5.862-1.082-1.991-.398-4.496-.569-4.894-.342-.455-.285,2.675-1.366,2.618-1.423-.284-6.033-4.04-5.919-3.585 .171.398 5.634,4.952 6.716,6.204 .911.91-1.65.113-1.309.455 .228.398 2.049,1.707 2.391,2.39 0,.513-.057,1.594-1.708.796-1.821-1.024-5.862-5.122-8.366-6.374-2.789-1.537-7.228-2.391-6.716-1.65 .456.796 8.765,4.724 10.244,6.09 1.367,1.081 0,1.138-1.479,1.024-1.764-.285-8.594-2.732-7.74-2.106 .854.512 9.505,3.813 13.432,5.292 3.699,1.195 7.569,1.708 9.22,2.391 1.252.74 1.252,1.082-.228,1.252-1.366-.228-4.667-.74-8.139-1.537-3.756-.967-9.561-2.731-13.431-3.528-3.984-.854-7.228-1.48-9.732-1.65-2.561-.341-4.382-.285-5.464.17 0-.682.171-1.821.285-2.788 .17-1.025.284-2.504.568-3.814z" fill="#ad9d76" fill-rule="evenodd"/>
 <path d="m77.628,207.695 16.277-1.422c-.74.911-2.105,1.765-3.472,2.789-1.536.91-4.097,2.39-5.463,2.903-1.593.17-2.276-1.367-3.358-.626-1.252.739-2.618,4.666-3.642,5.406-1.139.456-3.13-.683-3.13-2.105-.057-1.481.797-3.871 2.788-6.945z" fill="#8f8261" fill-rule="evenodd"/>
 <path d="m109.159,235.868c-.456-.911-3.984-4.098-4.895-4.724-1.024-.456-.456.626-.91,1.252-.57.398-1.252.797-2.049.968-1.082-.057-2.618-1.139-3.073-1.025-.626-.113-.739.456.569,1.025 1.31.512 5.806,1.593 7.57,2.162 1.649.512 3.015.853 2.788.342z" fill="#8f8261" fill-rule="evenodd"/>
 <path d="m72.166,236.721c.17-1.081.796-3.472 1.878-3.472 .967,0 2.276,1.479 3.301,2.902 .796,1.195.911,3.187 1.65,4.439 .513,1.024.854,1.878 2.106,2.333 1.138.455 4.723.113 5.065.512 .113.285-2.106.456-3.358.968-1.367.341-3.586.797-4.439,1.366-.854.513-.74,2.106-1.195,1.935-.741-.285-2.163-3.244-2.96-3.643-.968-.455-2.163.513-2.276.456-.114-.398.171-1.821 1.309-1.878 .854-.228 3.756,1.821 4.781,1.765s1.309-.74 1.081-1.822c-.398-1.195-2.333-4.553-3.187-5.008-.968-.569-2.105,1.765-2.561,1.765-.855-.285-1.253-1.593-1.195-2.618z" fill="#8f8261" fill-rule="evenodd"/>
 <path d="m77.344,232.624c.854-.171 3.87-.058 5.748.341 1.765.171 4.782,1.082 5.065,1.423 .114.171-3.187.057-3.984.284-.854.057-.512.854-.967.854-.796-.057-1.821-.91-2.846-1.024-1.138-.341-2.447-.341-3.016-.626-.569-.342-1.081-1.196 0-1.252z" fill="#8f8261" fill-rule="evenodd"/>
 <path d="m68.921,261.534c.626-1.479 3.301-3.642 4.325-4.097 .968-.456 1.366.513 1.196,1.593-.456.911-2.959,2.504-3.586,4.154-.854,1.652-1.081,4.384-.911,5.578 .17.797 1.765-.17 1.935.398 .057.684-1.422,2.392-1.821,3.131-.626.456-1.423.797-1.537-.285-.228-1.422.057-5.235.228-7.057 0-1.877-.683-2.218.171-3.415z" fill="#8f8261" fill-rule="evenodd"/>
 <path d="m76.775,285.381c-1.708,1.024-2.619,2.334-2.732,3.7-.228,1.422 1.423,3.243 1.65,4.553 0,1.194-.74,1.479-.911,2.616-.455.969-.796,1.994-.796,3.529-.057,1.479.17,3.188.683,5.35 .512.115 1.081.229 1.707.115 .455-.115 1.252-.228 1.764-.57 0-3.643-.113-6.716-.113-9.22-.114-2.675-.342-4.496-.456-6.146-.227-1.708-.569-3.016-.796-3.927z" fill="#8f8261" fill-rule="evenodd"/>
 <path d="m103.638,204.85c-.74,2.959-.854,4.553-.341,5.634 .569.683 2.219-.342 3.414-.228 .911.113.968,1.479 2.391,1.65 1.309.17 4.837-1.082 5.349-.683 .342.057-1.536.854-3.016,2.391-1.708,1.593-6.659,6.772-6.488,7.171 .17.057 4.781-4.326 7.455-5.691 2.504-1.479 5.065-2.049 7.911-1.708 2.903.341 6.716,1.936 8.821,3.87 1.708,1.822 1.196,5.464 2.22,6.545 1.024.683 2.618-1.48 3.699-1.252 .796.228.854,2.732 1.935,3.13 1.024.171 3.471-1.821 4.724-1.365 .911.228 1.537,3.016 2.333,3.528 .911.512 1.935.398 3.073-.341l-.056-7.171c-14.456-5.122-28.911-10.301-43.424-15.48z" fill="#ad9d76" fill-rule="evenodd"/>
 <path d="m114.963,222.436c.398-.74 1.309-1.252 2.106-1.309 .512-.057.398,1.423 1.422,1.139 .911-.513 3.813-3.643 4.098-3.472 .057,0-2.277,3.073-3.017,4.154-.796.968-1.252,1.65-1.821,2.05-.854.17-2.276.056-2.732-.342-.568-.627-.511-1.594-.056-2.22z" fill="#ad9d76" fill-rule="evenodd"/>
 <path d="m126.745,218.338c.113.398-2.562,6.375-3.643,8.48-1.309,1.821-2.39,3.358-2.789,3.073-.455-.512-.057-3.073.968-5.065 1.081-1.934 4.951-6.943 5.464-6.488z" fill="#ad9d76" fill-rule="evenodd"/>
 <path d="m113.882,235.64c.854-1.024 4.326-3.074 6.26-3.928 1.594-.853 2.675-.113 4.155-.626 1.423-.626 3.984-2.447 4.837-2.618 .74-.17.797.683-.284,1.708-1.366.91-5.122,3.073-6.886,3.87-1.651.626-2.618-.341-3.529.171-1.252.284-2.39,1.992-3.187,2.276-.853.172-2.333-.114-1.366-.853z" fill="#ad9d76" fill-rule="evenodd"/>
 <path d="m116.5,237.574c.682-.398 3.528,0 5.463-.569 1.764-.796 3.301-3.244 4.838-3.813 1.422-.683 3.414-.284 3.528.114-.057.284-2.903.854-3.928,1.708-1.195.682-1.536,1.934-2.788,2.674-1.422.74-4.098,1.31-5.18,1.48-1.25.058-2.616-1.422-1.933-1.594z" fill="#ad9d76" fill-rule="evenodd"/>
 <path d="m124.468,245.314c1.991-.967 3.642-1.536 4.723-1.081 .967.398 1.195,1.707 1.992,3.016 .74,1.024.854,2.674 2.505,3.643 1.423.968 5.122,1.309 6.943,1.651 1.878.057 3.187-.115 4.155-.74-.228,1.365-.74,2.333-.911,3.129-.398.627-.455,1.195-.854,1.481-.569.284-1.195.341-2.106.169-.626,1.594-1.195,2.903-1.48,4.384-.512,1.366-.512,2.674-.683,3.926-.341,1.252-.626,2.22-.854,3.358-.512-.057-1.081-.057-1.707.627-.683.398-.911,1.479-2.448,2.617-1.821,1.195-7.455,4.439-7.911,4.666-.569-.112 3.017-2.39 4.61-3.756 1.593-1.252 2.732-2.504 4.042-4.382 .91-2.048 2.105-7.171 2.048-8.14-.17-1.08-1.366.797-2.504,1.253-1.195.057-3.871,1.538-4.497-.17-.683-1.937.456-8.366.114-10.302-.683-1.935-2.732-.854-3.528-1.593-.852-.966-1.478-2.218-1.649-3.756z" fill="#ad9d76" fill-rule="evenodd"/>
 <path d="m127.769,247.762c-.569-.74-2.22-1.422-1.878-1.822 .284-.626 1.936-1.252 3.188-.569 1.024.74 1.593,3.985 3.244,5.35 1.479,1.195 3.927,1.765 5.805,2.334 1.765.398 4.041.284 4.838.74 .57.227-.171.968-.456,1.365-.228.398-.91.568-1.423.74-.796-.229-2.39-.398-2.617-.284-.171.228 1.081.966 1.308,1.763 .057.741-.398,2.334-.682,2.562-.342-.17-1.139-1.877-1.765-2.731-1.024-1.024-2.504-2.732-2.902-2.732-.398-.227.569,2.049.512,2.447-.342.4-1.594.799-2.22.343-.854-.627-1.878-2.847-2.163-3.813-.285-1.082-.057-2.048 0-2.675-.342-.683-.74-1.081-1.195-1.422l-1.594-1.596z" fill="#8f8261" fill-rule="evenodd"/>
 <path d="m93.792,244.234c-1.479,0-5.52,1.764-6.602,2.675-1.024.796-.968,1.31.398,2.162 1.309.57 5.52,1.992 7.342,2.106 1.65,0 3.301-1.65 2.562-1.877-1.082-.456-7.001-.171-8.31-.456-1.536-.398-.91-1.366.114-1.594 .854-.398 5.179-.171 5.918-.626 .683-.684-.227-2.504-1.422-2.39z" fill="#ad9d76" fill-rule="evenodd"/>
 <path d="m98.231,242.982c1.082-.57 4.382-1.424 4.61-1.025-.114.456-3.927,3.074-4.837,3.472-1.139.228-1.252-1.252-1.195-1.593-.058-.399.34-.684 1.422-.854z" fill="#ad9d76" fill-rule="evenodd"/>
 <path d="m109.329,252.202c-1.593.568-9.277,4.269-9.22,4.951 .113.455 8.081-.627 9.447-1.025 .911-.341-2.561-.511-2.732-.967-.057-.684 1.423-1.992 2.049-2.391 .456-.625 1.708-1.252.456-.568z" fill="#ad9d76" fill-rule="evenodd"/>
 <path d="m99.996,271.209c.455,1.424-1.822,5.578-.911,7.4 .911,1.593 4.78,1.422 6.089,2.332 1.082.57 1.878,1.765 1.082,2.277-.968.455-4.269.568-6.375,1.195-2.276.455-5.008,1.138-6.431,2.049-1.537.968-.797,3.301-2.391,3.243-1.935-.341-8.423-3.699-8.252-4.837 .17-1.195 7.74-1.879 9.333-2.732 1.367-1.195-1.195-2.731-.626-3.699 .569-1.08 2.959-1.138 3.871-2.39 .512-1.481 0-5.122.682-5.862 .855-.796 3.188-.454 3.929,1.024z" fill="#ad9d76" fill-rule="evenodd"/>
 <path d="m105.63,296.764c-.797.91-2.106,1.991-3.244,2.617-1.195.627-3.87.684-3.415.398 .228-.682 3.756-2.504 5.065-3.472 1.138-1.138 1.65-2.562 1.992-2.504 .171.001.114,1.937-.398,2.961z" fill="#ad9d76" fill-rule="evenodd"/>
 <path d="m108.305,295.852c1.48-.055 7.228.57 7.398,1.652-.113,1.139-7.228,4.895-7.739,5.121-.512-.057 4.325-4.324 4.382-5.121-.228-.854-4.211-.627-4.895-.627-.683-.455-.683-1.08.854-1.025z" fill="#ad9d76" fill-rule="evenodd"/>
 <path d="m107.451,304.619c.341-.114 3.358.626 4.211,1.593 .456.854-1.195,2.391-.342,3.927 .797,1.366 6.033,4.099 5.862,4.497-.341.227-5.862-1.424-7.114-2.732-1.365-1.424.057-4.553-.341-5.634-.625-1.197-2.561-1.822-2.276-1.651z" fill="#ad9d76" fill-rule="evenodd"/>
 <path d="m103.752,306.952c.113-.398-3.756.682-5.236-.057-1.537-.854-3.017-5.066-3.813-4.951-.854-.229-2.391,3.414-1.765,4.553 .285,1.08 2.448,2.22 4.326,2.332 1.878-.17 6.09-1.537 6.488-1.877z" fill="#ad9d76" fill-rule="evenodd"/>
 <path d="m94.532,311.504c1.081-.74 4.041-1.252 5.35-1.31 .911-.057.911,1.138 1.537,1.138 .739-.283 2.333-1.82 2.788-1.535 .285.171.057,2.902-.91,3.357-1.195.284-3.984-.797-5.521-.625-1.764,0-3.642,1.479-4.097,1.364-.627-.397-.343-1.707.853-2.389z" fill="#ad9d76" fill-rule="evenodd"/>
 <path d="m119.004,300.805c1.593-2.105 6.829-8.48 8.252-9.22 1.196-.797.683,2.616-.228,4.097-.967,1.195-3.756,2.276-5.292,3.699-1.765,1.367-4.269,4.098-4.667,4.439-.569.057.228-1.023 1.935-3.015z" fill="#ad9d76" fill-rule="evenodd"/>
 <path d="m122.362,302.797c2.276-1.879 7.342-6.203 9.048-6.83 1.367-.911.456,1.025-.967,2.504-1.708,1.594-6.601,4.667-8.537,6.375-2.049,1.423-3.415,2.561-3.244,2.332 .115-.455 1.424-2.504 3.7-4.381z" fill="#ad9d76" fill-rule="evenodd"/>
 <path d="m112.744,261.479c.569-.854 3.301-3.188 5.35-3.303 1.935-.341 5.179,1.025 6.431,1.936 1.139.74 1.366,3.416.456,3.416-1.195-.172-5.464-3.473-7.114-3.529-1.821-.115-2.561,2.959-3.301,3.301-.968.056-2.448-.912-1.822-1.821z" fill="#ad9d76" fill-rule="evenodd"/>
 <path d="m101.987,269.616c.796-1.365 4.097-3.186 5.065-3.472 .796-.284.398.968.113,1.993-.626,1.023-1.764,2.562-2.504,3.756-.797.967-1.082,2.219-1.536,2.447-.74.114-1.139-.341-1.423-1.138-.454-.797-.512-2.503.285-3.586z" fill="#ad9d76" fill-rule="evenodd"/>
 <path d="m112.118,279.69c.91-1.138 5.918-1.822 7.114-1.822 .967-.112.341,1.31-.342,1.879s-2.333.797-3.188,1.594c-.967.74-1.707,2.676-2.219,2.504-.853-.399-2.333-3.244-1.365-4.155z" fill="#ad9d76" fill-rule="evenodd"/>
 <path d="m75.409,223.802c1.479-1.423 3.187-2.902 5.35-4.667 1.935-1.822 4.04-3.7 7-5.862 2.845-2.333 6.375-4.667 10.358-7.456l4.553-.398c0,.74 0,1.65-.456,2.504-.512.74-1.024,2.333-1.992,2.618-1.081.284-2.845-1.935-3.983-1.423-1.309.342-1.822,1.765-3.301,3.187-1.593,1.195-3.813,2.675-6.033,4.439-2.561,1.936-5.976,4.268-7.854,6.09-1.708,1.423-2.562,2.219-3.017,3.016-.569.683-1.024,1.822-1.138,1.878-.455-.056-1.081-1.024-.968-1.593 .058-.626.627-1.48 1.481-2.333z" fill="#d4d791" fill-rule="evenodd"/>
 <path d="m86.905,230.632c1.765.569 5.065,1.821 7.911,2.902 2.619.91 7.456,2.049 7.74,2.504 0,.171-4.04-.057-7.057-.911-3.073-.967-9.277-3.984-10.7-4.667-1.536-.739.343-.454 2.106.172z" fill="#d4d791" fill-rule="evenodd"/>
 <path d="m88.67,241.445c1.764-.513 8.479-.967 11.78-1.139 2.959-.228 6.66-.626 6.488-.284-.284.284-5.577.91-8.195,1.65-2.959.512-6.603,1.48-8.31,1.593-1.707-.057-3.528-1.479-1.763-1.82z" fill="#d4d791" fill-rule="evenodd"/>
 <path d="m110.468,213.558c-.74.74-5.236,4.326-6.261,4.837-1.138.285-.228-1.593.342-2.333 .456-.91 1.992-1.708 3.073-2.163 .853-.683 3.415-1.024 2.846-.341z" fill="#d4d791" fill-rule="evenodd"/>
 <path d="m85.198,247.022c-.967.456-2.902.74-3.813,1.708-1.025.74-1.708,2.731-2.277,3.358-.796.569-1.593-.968-1.479-.227 .228.568 2.391,2.789 2.504,3.358-.227.341-1.707-.058-2.675-.968-1.081-.969-3.016-4.496-2.959-4.894 0-.513 2.163,1.195 3.188,1.422 .569-.227 1.252-.683 1.822-1.366 .455-.74.91-2.105 2.048-2.561 1.138-.626 4.667-1.195 5.35-1.082 .511.057-.855.626-1.709,1.252z" fill="#d4d791" fill-rule="evenodd"/>
 <path d="m85.142,255.104c1.138.057 3.642,1.31 5.349,1.536 1.423.058 4.041-.854 4.098-.569 0,.229-2.504,1.765-4.211,1.765-2.049-.341-6.147-1.878-7-2.39-.968-.514.568-.626 1.764-.342z" fill="#d4d791" fill-rule="evenodd"/>
 <path d="m108.134,258.519c-1.367.112-8.253,1.708-9.903,3.015-1.765,1.197-.854,3.985-.569,4.213 .056,0-.17-2.617 1.309-3.471 1.423-.854 5.407-1.48 7.114-1.879 1.479-.74 3.187-2.164 2.049-1.878z" fill="#d4d791" fill-rule="evenodd"/>
 <path d="m82.808,287.145c1.422.229 4.894,3.131 6.659,3.871 1.593.682 2.447.398 2.561.682-.114.058-1.423.514-3.074.058-1.821-.568-6.431-2.505-7.456-3.187-.966-.911-.17-1.822 1.31-1.424z" fill="#d4d791" fill-rule="evenodd"/>
 <path d="m111.548,294.545c1.537.112 4.554.511 6.204.966 1.479.114 2.333.114 2.561.456-.227.283-1.593.854-2.561,1.707-1.196.74-3.017,3.017-3.302,3.074-.227-.115 1.879-2.846 1.936-3.587-.171-.739-1.366-1.194-2.504-1.364-1.423-.455-4.154-.854-4.667-.969-.341-.283.74-.454 2.333-.283z" fill="#d4d791" fill-rule="evenodd"/>
 <path d="m127.2,288.34c.171.057-2.903,4.383-3.927,5.977-1.195,1.48-2.845,3.586-2.959,3.472-.341-.341.512-2.96 1.708-4.553 1.25-1.651 4.723-5.18 5.178-4.896z" fill="#d4d791" fill-rule="evenodd"/>
 <path d="m123.159,299.837c.74-.911 4.781-3.813 4.894-3.642-.113.112-3.699,4.04-4.609,4.723-.911.456-1.082-.341-.285-1.081z" fill="#d4d791" fill-rule="evenodd"/>
 <path d="m131.923,302.74c.057.114-.17,2.676-.683,4.61-.683,1.877-2.106,5.805-2.504,6.316-.398.17 1.195-4.097.398-4.268-.967-.172-4.211,2.787-5.349,3.357-1.139.398-2.447-.455-1.537-1.023 .796-.799 4.497-2.105 6.033-3.017 1.309-.854 1.537-1.65 2.22-2.392 .512-1.25 1.195-3.698 1.422-3.583z" fill="#d4d791" fill-rule="evenodd"/>
 <path d="m134.712,230.29c1.423-.284 4.325-.057 5.862.228 1.252.285.683,1.082 1.821,1.708 .911.512 4.325.739 4.325,1.139-.284.056-3.357.284-4.61.056-1.195-.456-1.365-1.48-2.732-1.764-1.707-.228-6.089-.114-6.772-.114-.796-.285.626-1.139 2.106-1.253z" fill="#d4d791" fill-rule="evenodd"/>
 <path d="m139.208,62.398c-.456-1.708-1.024-2.789-1.708-3.472s-2.049-.854-2.788-.74c-1.082-.114-1.822.114-2.846.455-1.935-2.162-3.927-3.927-6.203-4.666-2.391-.797-4.838-1.195-7.342-.569-2.789.455-5.521,2.276-7.74,3.073-2.219.341-2.732-.398-5.065.626-2.447,1.082-7.455,3.927-9.561,5.919-2.333,1.536-3.073,2.39-3.756,4.78-.796,2.562-.683,7-.74,9.789-.342,2.447-1.139,2.789-.399,5.407 .74,2.447 3.528,7.968 5.065,9.789 1.48,1.708 2.675,1.992 3.813.854 .228-.113-.342,1.024-1.252,3.643-1.024,2.447-2.106,4.61-4.781,11.724-3.074,7.057-8.651,22.651-12.122,30.96-3.529,8.252-6.26,12.578-8.423,18.497-2.163,5.861-3.699,9.732-4.838,16.448-1.309,6.488-2.391,14.058-3.017,22.708h1.822c.456.74 1.252,2.049 1.935,3.928 .683,1.821 1.479,4.04 2.391,6.886 2.959-.17 6.203-.17 9.732-.455 3.528-.456 7.911-.569 11.382-.968 3.358-.398 6.318-.739 8.879-1.024 .284.57 2.333,1.594 6.602,2.846 4.326,1.309 13.317,3.13 18.383,4.781 4.61,1.309 6.204,2.276 10.017,3.984 3.7,1.537 10.416,5.293 12.692,5.975 1.992.513.398-.512.512-2.219 0-1.821.342-4.553.398-8.423 .228-4.154.456-11.326.456-15.366-.341-4.155-.684-5.18-1.65-8.992-.967-4.041-2.334-8.765-4.098-14.626 3.813-3.188 6.659-5.749 8.992-7.912 2.049-2.219 2.959-3.756 4.495-5.064 1.65-1.366 3.188-1.48 5.066-3.188 1.707-1.935 3.529-4.439 5.463-7.74 1.252-.741 2.447-1.48 3.358-2.448 .854-.967 1.194-2.276 2.106-3.073 .738-1.024 2.219-.683 2.902-2.675 .512-2.106.625-5.35.341-9.732 2.618-1.65 4.269-4.553 5.179-8.479 .74-4.155.456-11.269 0-15.423-.568-4.154-1.593-6.26-3.073-9.618-1.65-3.585-3.698-7.456-6.374-11.61 .627-.684 1.537-1.537 2.959-2.789s3.074-2.731 5.406-4.438c-1.252.228-2.959,0-5.121-.456-2.162-.626-6.204-1.993-7.967-2.789-1.879-.91-3.188-1.764-3.701-2.561-.739-1.024-1.08-1.935-.797-2.959-2.901-2.05-5.292-3.643-8.024-5.008-2.618-1.423-5.122-2.619-7.74-3.131-2.845-.63-5.919-.858-9.22-.459z" fill="#90bcd8" fill-rule="evenodd" stroke="#90bcd8" stroke-miterlimit="10" stroke-width=".036"/>
 <path d="m106.084,59.609c-.682.113-.967,1.537-.853,2.504 0,.683.284,1.708.853,2.39 .399.626 1.082,1.537 1.822,1.423 .74-.342 1.65-1.992 2.106-2.789 .17-.796-.342-1.537-.854-1.992-.74-.74-2.504-1.764-3.074-1.536z" fill="#dfeaee" fill-rule="evenodd"/>
 <path d="m105.63,60.292c-.456-.057-.911,1.422-.683,2.447 .113.854 1.366,2.276 1.992,2.96 .513.455.683.455 1.196.228 .341-.398 1.252-1.48 1.195-1.935-.398-.398-1.708-.456-2.391-.854-.74-.74-.968-2.79-1.309-2.846z" fill="#505766" fill-rule="evenodd"/>
 <path d="m100.85,62.113c-.228.456.569,4.667 1.707,6.26 .911,1.252 2.333,1.878 3.813,2.106 1.479-.057 4.382-.796 4.723-1.309 0-.512-2.561-1.366-3.756-1.708-1.309-.512-2.049-.683-3.13-1.366-1.138-.91-3.131-4.496-3.357-3.983z" fill="#6d778c" fill-rule="evenodd"/>
 <path d="m101.703,62.853c.057.228.74,2.504 2.276,3.529 1.309.91 5.065,1.593 5.578,1.821 .171-.114-2.22-1.309-3.187-1.821-.91-.513-1.48-.683-2.163-1.139-.853-.683-2.561-2.732-2.504-2.39z" fill="#dfeaee" fill-rule="evenodd"/>
 <path d="m109.841,72.528c-.853,0-3.414,1.537-5.064,2.447-1.822.741-3.415,1.367-4.781,2.505-1.537,1.024-3.074,2.789-3.756,4.382-.797,1.707-.512,3.585-.455,5.179 0,1.31-.171,1.65.398,2.789 .341.853 1.195,2.561 2.106,2.959 .967.228 2.162-.228 2.675-.683 .113-.626-1.082-1.537-1.423-2.105-.455-.683-.74-1.139-1.081-1.366-.398-.398-1.878.228-1.366-.341 .341-.74 2.902-3.358 3.756-3.472 .625-.171-.228,2.333.739,2.903 .911.512 3.871,1.138 5.179.569 1.31-.854 2.049-3.871 2.22-4.439 0-.683-2.049,1.082-2.22.911-.398-.285-.569-1.195.114-2.105 .626-1.082 2.959-2.789 3.244-3.358-.057-.626-2.504-.057-2.959-.285-.569-.398.057-1.082-.284-1.422-.626-.456-2.789-.114-2.504-.513 .398-.569 3.471-1.423 4.61-2.106 .739-.912 1.535-2.449.852-2.449z" fill="#6d778c" fill-rule="evenodd"/>
 <path d="m99.313,88.862c-.569-.057-.796.626-1.139,1.139-.456.341-.682.569-.682,1.138-.171.513-.057,1.423.569,1.821 .569,0 2.789-.227 3.358-.682 .341-.569-.398-1.252-.683-1.822-.399-.626-1.082-1.594-1.423-1.594z" fill="#505766" fill-rule="evenodd"/>
 <path d="m97.207,85.959c-.228-.398 1.537-1.65 2.219-2.675 .57-1.196 1.024-3.245 1.594-3.301 .455.113 1.309,2.675 1.252,3.699-.398.854-1.479.569-2.391,1.138-.91.343-2.674,1.31-2.674,1.139z" fill="#505766" fill-rule="evenodd"/>
 <path d="m102.67,91.423c-.74-.455-2.448-2.959-3.13-3.358-.854-.626-1.252.114-1.195,0 .057-.398 1.081-1.593 1.536-1.593 .341-.057-.456.854.683,1.423 1.024.341 5.122.796 5.52,1.138 .114.057-3.244.228-3.699.513-.512.398.968.967 1.138,1.48 .001.283-.284.852-.853.397z" fill="#dfeaee" fill-rule="evenodd"/>
 <path d="m92.825,73.154c-.341.398-.398,2.562-.398,4.041-.398,1.138-.968,2.504-.797,4.098 .171,1.537 1.366,5.406 1.821,5.463 .228-.17-.398-3.87.569-5.862 .968-2.049 5.406-5.179 5.634-6.09-.114-1.138-3.927.57-5.065.285-1.195-.398-1.481-2.276-1.764-1.935z" fill="#6d778c" fill-rule="evenodd"/>
 <path d="m104.548,93.927c-.74.228-2.447,2.105-3.13,2.789-.911.853-1.366,1.252-1.366,1.821 .114.398 1.252.796 1.65.74 0-.171-.797-1.024-.228-1.708 .683-.967 3.529-2.674 4.155-3.357 .399-.74-.398-.626-1.081-.285z" fill="#dfeaee" fill-rule="evenodd"/>
 <path d="m100.45,95.065c.797-1.252 1.537-2.049 1.993-2.162 .512-.342.854.341.569,1.195-.626.797-3.073,2.504-3.642,3.585-.626.797-.399,1.367.227,1.708 .456.284 2.505.569 3.074.398 .341-.456-1.252-1.139-.398-2.048 .797-1.139 3.529-2.903 5.122-3.301 1.252-.285 2.504.967 2.902,1.593 .285.626-.171.456-1.366,1.65-1.65.854-6.829,2.334-7.228,4.212-.284,1.821 2.903,4.041 5.407,7.114 2.333,3.073 5.862,7.854 8.366,10.643 2.276,2.447 4.04,3.87 5.064,4.951 .626.968-1.65-.171 0,1.422 1.651,1.765 8.48,6.545 10.188,8.423 1.593,1.594-1.935-.228-.285,1.537 1.593,1.764 7.968,6.545 9.676,8.423 1.479,1.48-.285.74 0,1.536 .17.513.739,1.537 1.708,2.846 .854,1.309 3.244,3.301 3.642,5.52 .114,2.276-.91,6.66-1.536,7.456-.683.456-1.935-2.846-2.22-4.439-.512-1.992.398-4.61-.341-6.089-.854-1.423-2.732-1.252-4.781-2.562-2.276-1.593-5.976-3.528-8.252-6.431-2.562-3.188-3.699-8.025-6.033-10.984-2.391-2.789-5.976-3.984-7.911-6.033-1.993-2.276-1.878-4.155-3.813-7.17-2.106-3.188-7.74-12.18-8.594-11.838-.911.342 2.675,10.757 3.073,13.659 .228,2.675-1.479.797-1.821,2.276-.456,1.309-.739,5.749-1.082,5.634-.569-.569-1.308-4.269-1.536-7.797-.399-3.642.114-10.87 0-12.919-.342-2.105-.797.911-1.139.683-.398-.455-.455-3.528-.854-3.074-.512.456-1.765,4.269-2.219,5.065-.626.513-.968-1.252-1.024-1.992-.057-.968.17-2.163.682-3.358 .342-1.366 1.025-3.073 1.594-4.211 .512-1.138.74-2.163 1.138-2.845l1.65-2.276z" fill="#6d778c" fill-rule="evenodd"/>
 <path d="m111.264,116.066c.341-.113 5.577,6.317 6.488,7.456 .682,1.138-.911.797-1.936-.398-1.194-1.367-4.837-7.228-4.552-7.058z" fill="#505766" fill-rule="evenodd"/>
 <path d="m120.825,127.904c1.195.569 6.261,4.894 7.74,6.146 1.195,1.024-1.708-.341-.113,1.195 1.536,1.537 7.626,6.943 9.276,8.537 1.367,1.423-.739.228-.17,1.024s3.13,3.528 3.301,4.041c0,.398-1.65.057-2.959-1.253-1.423-1.479-3.983-5.008-5.52-6.658-1.821-1.594-2.959-2.22-4.041-3.188-1.024-1.252-1.024-2.162-1.992-3.414-1.082-1.537-3.358-3.188-4.211-4.325-1.083-1.137-2.335-2.788-1.311-2.105z" fill="#505766" fill-rule="evenodd"/>
 <path d="m138.297,174.174c-.74.455-4.098-3.358-5.463-5.52-1.48-2.276-2.05-6.488-3.017-8.025-.911-1.65-2.105-.91-2.959-1.707-.91-1.024-.284-3.301-2.959-3.984-2.902-.739-11.382.456-14.058-.398-2.788-.91-3.756-4.268-2.675-5.236 .968-1.138 4.724-1.65 8.196-1.308 3.073.113 8.082,1.991 11.041,3.016 2.846.911 4.838,1.367 6.66,3.13 1.821,1.708 3.301,4.837 3.983,6.943 .513,1.821-1.024,2.333-.682,4.61 .112,2.048 2.446,8.024 1.933,8.479z" fill="#6d778c" fill-rule="evenodd"/>
 <path d="m91.345,165.182c1.593-1.878 10.074-3.87 14.684-4.439 4.439-.626 9.391.455 12.634.853 3.187.285 5.18.114 6.659,1.025 1.252.796.455,2.333 1.536,3.528 1.024.854 2.789,1.366 4.382,2.845 1.252,1.48 2.391,4.269 3.871,6.603 1.309,2.276 3.87,4.496 4.61,6.659 .739,1.708-1.252,2.333-.285,4.951 .797,2.789 4.667,9.675 5.008,11.212 .114,1.308-2.504-.114-4.097-2.96-1.822-2.959-3.927-10.757-6.09-14.172-2.391-3.528-5.634-4.268-7.285-6.203-1.65-2.049-.57-3.87-2.22-5.236-1.821-1.537-5.349-2.902-8.366-3.415-3.188-.74-8.878-.853-10.472-.569-1.65.341 2.333.968.74,2.105-1.992.854-8.309,3.756-11.042,3.415-2.731-.625-5.975-4.438-4.267-6.202z" fill="#6d778c" fill-rule="evenodd"/>
 <path d="m106.938,192.158c1.537-1.024 6.773-3.983 9.562-4.041 2.617-.17 4.04,1.31 6.658,2.902 2.675,1.31 6.659,3.813 8.651,5.521 1.593,1.536 0,2.561 1.593,4.382 1.593,1.935 6.943,5.008 7.512,6.374 .228,1.081-3.585,1.195-5.293.341-1.992-1.081-3.699-4.78-5.35-6.26-1.65-1.593-3.073-1.536-4.269-2.675-1.309-1.365-2.219-3.073-3.813-4.268-1.993-1.195-4.269-2.846-6.83-2.789-2.732-.113-6.83,2.504-8.309,2.618-1.705-.113-1.534-1.023-.112-2.105z" fill="#6d778c" fill-rule="evenodd"/>
 <path d="m146.72,210.029c-.626-1.65-1.65-3.244-2.845-4.154-1.309-1.139-5.123-1.309-4.667-2.049 .285-.968 5.578-2.846 6.886-2.561 1.082.228-.228,3.756.456,4.667 .74.739 1.708,1.138 3.528.569l-.17,3.813c-1.593,1.081-2.732,1.593-3.188,1.536-.569-.057-.569-.74 0-1.821z" fill="#6d778c" fill-rule="evenodd"/>
 <path d="m149.111,189.939c-.456-1.48-.911-3.13-1.594-5.577-.683-2.504-1.878-6.944-2.276-8.708-.569-1.764-.683-2.39-.569-1.878 1.821-1.536 3.187-3.016 4.723-4.211 1.31-1.309 2.333-2.277 3.7-3.529 1.252-1.366 2.845-3.756 4.097-4.723 1.025-1.082 2.048-1.765 2.619-1.821 0-1.822-.229-4.439-.684-7.228-.626-2.846.512-8.024-2.105-10.302-2.789-2.447-10.472-3.642-13.602-4.666-3.188-1.309-4.553-2.504-5.407-2.276-1.024.17-1.821,2.333-.398,3.642 1.309,1.195 7.342,2.561 8.65,3.87 1.082,1.195-1.992,2.732-1.536,3.927 .569,1.024 3.699,1.537 4.325,2.845 .228,1.024-1.764,2.106-2.22,4.781-.455,2.789-.342,8.993-.569,11.61-.569,2.334-1.195,3.415-2.106,3.016-1.024-.569-2.333-5.407-3.301-6.146-1.024-.911-2.333-.74-2.39,1.138-.171,1.708.739,7.058 1.422,9.903 .569,2.618 1.537,4.553 1.992,6.716 .171,2.276-.626,4.325-.398,6.375 .057,1.707.797,3.187 1.537,4.666 .626,1.48 1.765,3.529 2.561,4.61 .626.968 1.138,1.878 1.536,1.195 .114-1.081-.398-4.894 0-6.146 .399-1.14.855-1.709 1.993-1.083z" fill="#6d778c" fill-rule="evenodd"/>
 <path d="m157.59,158.921c-1.422.512-5.121,2.618-6.488,1.707-1.195-1.195-1.195-5.463-.626-7.512 .342-2.049 3.586-2.618 3.13-4.553-.569-2.106-6.09-6.431-6.033-7.512 0-1.196 4.553-.57 6.204.569 1.536,1.195 2.902,4.154 3.414,6.26 .285,1.878-1.195,3.699-1.138,5.236 .113,1.366 1.252,2.276 1.651,3.358 .342.967.74,1.708-.114,2.447z" fill="#505766" fill-rule="evenodd"/>
 <path d="m133.972,163.475c-.114-.968-.854-3.529-1.593-4.837-1.024-1.48-2.846-2.619-3.7-3.643-.91-1.082-.512-1.821-1.65-2.447-1.366-.683-2.846-1.082-5.521-1.423-2.789-.569-8.878-1.423-10.358-1.025-1.479.228-.739,2.277 1.594,2.846 2.049.284 8.935-.456 11.439.17 2.276.797 1.992,2.789 3.073,3.984 .968.854 2.276.456 3.301,1.65 .797,1.195 1.935,4.269 2.561,5.293 .399.57.968.456.854-.568z" fill="#505766" fill-rule="evenodd"/>
 <path d="m143.306,173.036c-.171-1.65-1.309-5.35-1.878-6.716-.74-1.537-1.651-2.276-1.651-.911-.056,1.423 1.025,8.31 1.708,9.675 .398,1.252 1.878-.739 1.821-2.048z" fill="#505766" fill-rule="evenodd"/>
 <path d="m98.118,164.727c1.593-1.196 8.195-2.163 11.041-2.448 2.788-.228 3.756.513 6.203.911 2.391.228 6.545-.113 8.082.512 1.365.513-1.025,1.252.284,2.448 1.138.967 5.406,2.333 7.114,4.098 1.65,1.65 2.789,5.521 2.789,6.375-.342.569-2.618-.626-3.756-1.822-1.081-1.252-1.594-3.699-2.846-4.951-1.593-1.309-4.212-2.391-5.407-3.016-1.309-.683 1.195-1.309-1.708-1.423-3.073-.341-13.317-.626-15.992-.228-2.561.399.683,1.309.057,2.049-1.081.341-4.439,1.593-5.463,1.138-1.081-.627-2.163-2.562-.398-3.643z" fill="#505766" fill-rule="evenodd"/>
 <path d="m144.444,180.833c-.228.341.342,3.471.398,5.236-.056,1.65-.626,4.211-.398,4.837 .057.399.797-1.593 1.367-1.991 .455-.398 1.536.285 1.707-.398 0-.911-.967-3.188-1.366-4.439-.513-1.481-1.594-3.587-1.708-3.245z" fill="#505766" fill-rule="evenodd"/>
 <path d="m99.654,135.587c-.284.796-1.764,5.634-1.821,8.594-.17,2.732.341,5.69.854,7.968 .398,2.219.854,3.87 1.593,4.951 .513.797 2.333,1.309 2.391.228-.114-1.195-1.537-4.211-2.106-7.057-.796-3.017-1.366-7.74-1.479-10.188-.172-2.561.682-5.236.568-4.496z" fill="#6d778c" fill-rule="evenodd"/>
 <path d="m98.003,174.345c1.479-.74 4.723-1.424 6.659-1.822 1.65-.456 3.074-.91 4.269-.683 1.138.227 1.708,1.252 3.471,1.536 1.878,0 7.171-1.479 7.513-1.138-.171.284-4.724,1.48-7.057,2.675-2.447,1.024-4.61,2.163-6.488,3.414s-4.325,3.358-4.268,4.098c-.057.512 2.618,0 4.496-.455 1.765-.569 4.269-2.447 6.431-2.562 2.049-.398 4.041.968 6.204,1.024 1.992-.171 5.577-1.366 6.374-1.138 .626.228-.569,1.537-1.821,2.39-1.252.627-4.042,1.082-5.521,1.139-1.65-.171-2.562-1.821-3.813-1.65-1.365.057-3.073.967-4.04,2.049-.968.796-1.082,2.846-2.106,3.7-1.195.796-3.301,1.707-4.781,1.423-1.765-.285-3.244-2.789-4.667-3.13-1.537-.398-3.017.797-3.813.739-.91-.285-1.992-.739-.854-1.821 1.082-1.139 5.236-2.959 7.171-4.382 1.65-1.594 1.708-3.415 3.017-4.154 1.195-.626 2.959-.285 4.211-.285 1.139-.17 2.789-.854 2.732-.967-.228-.398-2.504-.74-3.984-.57-1.707.057-3.244.796-5.065,1.537-2.049.626-4.326,2.562-5.521,2.732-1.139-.114-1.65-1.082-1.31-1.821 .114-.683.968-1.309 2.561-1.878z" fill="#6d778c" fill-rule="evenodd"/>
 <path d="m72.962,160.458c-.626,1.593-1.537,3.585-2.106,5.976-.796,2.276-1.422,4.439-2.105,8.025-.683,3.471-1.195,7.74-1.765,12.806 .797-1.423 1.479-2.447 2.276-2.619 .683-.341 1.309,1.423 1.879.911 .341-.797.17-2.562.796-4.838 .74-2.447 2.276-6.772 2.845-8.594 .171-1.708-1.479-.796-1.252-1.878 .171-1.593 2.219-4.382 2.447-5.919 .057-1.422-1.65-1.764-2.049-2.333-.625-.74-.738-1.252-.966-1.537z" fill="#6d778c" fill-rule="evenodd"/>
 <path d="m72.108,164.727c-.74,1.081-1.594,4.894-2.106,7.74-.626,2.561-1.252,7-.967,7.854 .227.569 2.162-2.447 2.504-3.529 .056-.968-1.367-1.024-.968-2.618 .228-1.821 2.789-6.146 3.074-7.74 .227-1.821-1.082-2.618-1.537-1.707z" fill="#505766" fill-rule="evenodd"/>
 <path d="m66.758,188.231c.797-1.024 1.537-1.764 2.22-1.992 .74-.285 1.195-.342 1.593.456 .057.739-.569,2.447-.569,3.813-.057,1.196.911,2.959.683,3.756-.513.683-1.48-.227-2.276.342-.797.341-1.423,1.082-2.106,2.219-.114-.569-.114-1.48 0-2.959s.114-3.358.455-5.635z" fill="#dfeaee" fill-rule="evenodd"/>
 <path d="m82.58,194.719c1.024,2.959 2.276,4.724 3.984,5.977 1.593,1.081 2.903.455 5.691.569 2.675-.285 7-.967 10.13-.74 2.959.285 4.154,1.423 7.968,2.561 3.756.854 14.626,4.269 14.398,3.415-.455-.967-12.236-7.229-16.675-8.651-4.553-1.593-6.716.057-9.789-.284-3.074-.57-5.293-.683-8.651-2.106-3.528-1.594-7.797-3.528-12.578-6.488l5.522,5.747z" fill="#6d778c" fill-rule="evenodd"/>
 <path d="m72.393,199.728c2.162-.228 4.553-.228 7.398,0 2.732.17 6.488.683 9.277.911 2.618-.057 4.78.058 6.943-.114s4.041-.91 5.862-.683c1.65.056 2.277.796 4.496,1.536 2.105.683 5.293,1.65 8.48,2.675 3.187.967 6.942,1.65 9.959,2.675 2.675.797 4.724,1.936 6.773,2.732 1.992.626 3.301.91 5.236,1.764 1.878,1.024 4.097,2.22 5.975,3.357 1.765.854 3.301,1.537 4.382,1.822 .968-.058 1.423-.57 1.139-1.082-.57-.57-2.789-1.196-3.585-2.106-.911-1.195-.854-3.586-1.366-4.553s-1.878-1.424-1.708-1.594c-.057-.285 1.081-1.195 1.651-.569 .398.398.91,1.992 1.309,3.017 .171.967-.456,1.821.285,2.788 .74.684 3.358,1.252 4.098,2.163 .626.797.455,2.902-.284,3.244-.911.171-2.106-.456-4.497-1.422-2.447-1.195-6.602-3.301-9.846-4.781-3.415-1.423-6.772-3.017-9.846-3.871-3.244-.967-5.976-1.707-8.822-2.219-2.958-.683-5.634-1.65-8.024-2.276-2.391-.854-3.528-2.049-5.862-2.276-2.504-.342-6.204.683-8.879.854-2.788,0-5.236-.285-7.796-.398-2.903-.398-6.432-.684-8.594-.854-2.22-.17-3.7.398-4.439.398-.74-.17-1.082-.456-.398-.854l.683-.284z" fill="#dfeaee" fill-rule="evenodd"/>
 <path d="m123.33,183.052c-1.082-.057-7.797,1.878-8.708,2.504-1.024.398 1.48.512 2.675.569 1.082,0 2.333-.057 3.528-.398 .967-.683 3.415-2.675 2.505-2.675z" fill="#dfeaee" fill-rule="evenodd"/>
 <path d="m121.508,187.15c.398-.057 2.447.74 3.301,1.537 .854.513 1.936,1.708 1.708,1.821-.512-.114-3.756-.91-4.439-1.536-.911-.626-1.025-1.822-.57-1.822z" fill="#dfeaee" fill-rule="evenodd"/>
 <path d="m109.898,179.182c.398-.569 2.561-1.309 3.871-1.536 1.195-.228 2.105.284 3.358.455 1.195-.057 3.358-.228 3.414-.057-.228.114-3.301.569-4.382.74-1.138-.057-2.049-.456-2.732-.284-1.024.113-1.934.967-2.504,1.252-.74.057-1.594-.342-1.025-.57z" fill="#dfeaee" fill-rule="evenodd"/>
 <path d="m109.785,170.417c.512-.113 1.081.285 1.935.57 .739.284.91.91 2.276,1.024 1.138-.171 4.781-1.594 5.008-1.423 .113.17-3.017,1.707-4.098,2.219-1.309.171-2.561-.113-3.301-.228-.854-.171-1.024-.626-1.366-.74-.74-.285-1.423-.399-1.594-.57-.17-.339.57-.852 1.14-.852z" fill="#dfeaee" fill-rule="evenodd"/>
 <path d="m107.508,158.352c2.219,0 7.74.456 9.504,1.139 1.479.284 1.252,1.195 0,1.195-1.423-.171-5.634-1.31-7.797-1.423-2.333-.114-4.837,1.024-5.122.967-.455-.341 1.195-1.707 3.415-1.878z" fill="#dfeaee" fill-rule="evenodd"/>
 <path d="m120.541,148.222c0,.171 2.049.569 3.984,1.423 1.992.682 6.659,2.675 7.626,2.902 .797-.057-1.935-1.65-3.13-2.333-1.537-.797-3.871-1.252-5.236-1.593-1.537-.513-3.415-.57-3.244-.399z" fill="#dfeaee" fill-rule="evenodd"/>
 <path d="m168.005,77.024c.569.626.854,1.252.854,1.65-.17.228-1.594,0-1.422.854 .112.854 1.877,3.585 1.991,4.439-.171.455-2.22-.513-2.39-.057-.172.398 1.252,2.561 1.422,3.415-.058.739-2.333.455-1.139,1.593 1.139,1.082 8.139,3.358 7.797,5.065-.568,1.479-9.162,2.902-10.642,4.496-1.48,1.48.227,1.935 1.82,5.123 1.538,3.187 5.122,8.878 7.001,14 1.536,4.951 3.244,13.204 2.96,15.764-.343,2.22-3.415-1.707-4.839-1.48-1.366.342-2.561,1.993-3.813,3.188-1.537.854-4.098,1.537-4.838,2.902-.797,1.31-.342,4.155.456,5.236 .567.911 1.194,1.708 3.642.854 2.277-.967 5.862-3.016 10.529-6.374 .057,1.024-.114,1.992-.285,2.903-.228.854-.455,1.708-.91,2.333-.627.512-1.537.456-2.105,1.138-.627.456-.455,1.594-1.252,2.562-.969.854-3.131,2.048-4.098,3.13-1.082.967-.968,2.049-1.879,3.017-1.138.797-3.017,3.016-4.098,2.675-1.139-.455-2.277-3.073-2.561-4.78-.57-1.821.455-3.927 0-5.691-.684-1.936-1.65-3.301-2.903-5.635-1.366-2.674-3.984-7.854-4.554-9.39-.569-1.48.399-1.139 1.139-.285 .569.569 2.163,4.724 2.789,4.154 .398-.854-.171-7.513.284-7.911 .285-.341.967,5.179 2.276,6.033 1.139.512 4.383-.626 5.123-1.65 .569-1.195-.911-3.188-1.594-4.439-.91-1.366-2.618-.455-3.131-2.788-.625-2.562.342-7.684.058-11.383-.569-3.813-1.423-7.626-2.562-10.586-1.309-3.074-3.813-6.83-4.666-7.512-.854-.854-.057,2.39-.456,2.731-.683.057-1.878-1.252-2.504-1.308-.569-.114-1.537-.057-1.139,1.252 .342,1.082 3.415,6.431 2.846,5.976-.796-.512-6.716-7.513-7.228-8.935-.683-1.48 3.187.512 3.927.057 .512-.683-.455-3.302.171-3.472 .512-.284 2.39,2.448 3.244,2.276 .74-.512-.569-4.61 1.366-3.927 1.821.796 7.683,6.886 9.675,8.366 1.766,1.139 1.766.569 1.31-.626-.684-1.536-3.529-4.382-4.839-6.773-1.536-2.39-2.674-5.463-2.959-6.772-.113-1.252 1.139-1.537 1.992-1.082 .684.228 1.309,2.334 2.105,2.789 .512.171 1.252-.854 2.22-.626s3.301,2.162 3.699,2.106c.171-.285-1.081-2.277-1.991-3.13s-3.017-1.195-3.699-1.878c-.911-.797.228-1.65-1.423-2.789-1.765-1.537-8.423-4.439-8.766-4.951-.398-.569 3.757.455 6.545,1.992 2.846,1.309 8.196,6.203 9.903,6.773 1.252.512-.91-2.619-1.025-3.245 .058-.682.456-.17.742-.456-.058-.398-.912-1.308-.57-1.422 .231-.229 1.03-.058 2.394.511z" fill="#6d778c" fill-rule="evenodd"/>
 <path d="m155.03,93.415c.967,2.22 5.236,7.797 6.659,11.896 1.081,3.927.171,8.366.796,11.553 .455,3.017 1.252,4.326 3.245,6.773 1.991,2.39 7.227,7.171 8.708,7.569 1.137.113.169-2.391-1.139-5.976-1.309-3.699-4.609-10.871-6.375-15.139-1.991-4.269-2.732-7.228-4.666-10.188-2.049-3.073-5.635-6.944-6.83-7.911-1.365-1.081-1.423-.967-.398,1.423z" fill="#505766" fill-rule="evenodd"/>
 <path d="m159.924,85.902c-.113.968.797,3.528 2.276,5.065 1.252,1.252 4.154,2.105 5.862,2.561 1.535.341 3.813.398 4.211.171 .285-.456-.455-1.423-1.535-1.992-1.31-.626-3.814-.399-5.123-1.309-1.366-1.139-1.822-3.756-2.676-4.554-.966-.796-3.071-.852-3.015.058z" fill="#505766" fill-rule="evenodd"/>
 <path d="m169.429,78.048c.683,1.65 1.081,3.188 1.821,4.61 .568,1.422 1.195,2.39 1.877,3.528 .969-.911 2.049-1.935 3.244-2.846 1.082-1.024 2.504-1.934 3.813-2.958-1.991-.285-3.87-.626-5.634-1.024-1.82-.399-3.528-.911-5.121-1.31z" fill="#505766" fill-rule="evenodd"/>
 <path d="m165.616,147.425c.342-1.082 2.902-2.333 3.928-2.845 .797-.513 1.308.456 1.991.057 .626-.57 1.82-2.448 2.276-2.562 .113-.17-.057.74-.285,1.423-.227.456-.682,1.252-1.137,1.935-.57.456-1.252,1.252-1.822,1.536-.683,0-1.252-.341-1.935.057-.739.398-1.65,2.959-2.049,3.073-.625.115-1.538-1.877-.967-2.674z" fill="#505766" fill-rule="evenodd"/>
 <path d="m136.306,113.676c.398.455 4.951,5.179 7.512,7.341 2.391,2.163 4.497,3.984 6.545,5.236 1.764,1.081 4.154,1.423 4.325,1.252 .057-.455-1.138-1.48-3.358-3.074-2.333-1.821-7.57-4.837-10.017-6.659-2.731-1.819-5.349-4.722-5.007-4.096z" fill="#dfeaee" fill-rule="evenodd"/>
 <path d="m155.429,121.587c-.228,1.082-.398,2.333-.285,3.301-.17.796-.113,2.391.171,1.48 .285-1.139.968-7.001 1.139-7.74-.058-.855-.912,1.877-1.025,2.959z" fill="#dfeaee" fill-rule="evenodd"/>
 <path d="m149.908,96.772c-.398.228 1.765,3.017 2.789,4.838 .967,1.708 2.845,5.293 3.187,5.293 .114-.285-.569-5.065-1.593-6.659-1.083-1.877-4.156-3.699-4.383-3.472z" fill="#dfeaee" fill-rule="evenodd"/>
 <path d="m154.005,83.626c.342,1.479 1.537,3.813 3.13,6.146 1.537,2.163 4.781,5.691 5.805,6.659 .684.683 0-.569-.967-1.991-1.081-1.424-3.529-4.099-4.724-6.261-1.309-2.276-1.708-6.374-2.276-7.057-.683-.74-1.366.967-.968,2.504z" fill="#dfeaee" fill-rule="evenodd"/>
 <path d="m165.9,102.179c.114.683 2.105,3.131 3.813,6.261 1.537,3.016 4.781,10.643 5.805,11.895 .854,1.024 1.025-2.333-.113-5.008-1.365-2.902-5.18-9.277-6.83-11.44-1.707-2.162-2.903-2.732-2.675-1.708z" fill="#dfeaee" fill-rule="evenodd"/>
 <path d="m134.029,128.814c-2.562-1.082-7.911-1.252-8.594-1.593-.74-.398 3.13.285 3.699-.797 .285-1.423-2.447-6.943-1.422-6.659 .911.342 4.269,6.204 7.228,8.594 2.902,2.163 7.513,3.528 10.301,4.554 2.561.797 3.13-.342 5.236.967 2.049,1.366 5.977,5.805 6.943,6.943 .626.74-1.195-.057-2.39-1.082-1.252-.967-2.618-3.358-5.009-4.325-2.617-1.252-7.114-1.309-9.731-2.333-2.732-1.309-3.87-3.244-6.261-4.269z" fill="#dfeaee" fill-rule="evenodd"/>
 <path d="m208.129,75.658c-1.992-.512-3.301-.967-4.61-1.138-1.308-.285-.797,0-2.846-.228-2.163-.342-5.178-.797-9.504-1.366-.683-.512-1.024-.91-1.252-1.423-.398-.512-.398-1.366 0-1.708 .398-.569 1.252-1.024 2.562-1.366 3.301.114 5.805.512 7.968.967 2.048.398 1.708,1.082 4.495,1.821 2.504.512 5.35,1.025 11.383,2.22s16.504,2.903 24.586,4.894c7.969,1.765 14.57,3.871 22.652,6.09 7.968,2.106 19.236,5.065 24.813,6.66 5.293,1.308 5.293,1.593 7.456,1.934 2.049.228 4.324,1.139 5.747.342 1.31-.854 1.424-4.098 2.96-5.351 1.536-1.536 3.984-2.504 6.261-2.447 2.105.113 4.325.113 6.432,3.528 1.877,3.529 5.975,12.635 5.292,16.79-.854,3.87-7.229,5.634-10.131,6.829-3.072,1.082-5.69,1.936-7.627-.512-2.048-2.846-3.243-7.74-4.04-15.537-3.415-.741-7.569-1.708-12.691-2.903-5.235-1.195-9.221-2.561-17.87-4.553-8.992-2.333-23.79-5.862-34.262-8.195s-19.578-4.039-27.774-5.348z" fill-rule="evenodd" stroke="#000" stroke-miterlimit="10" stroke-width=".036"/>
 <path d="m304.654,96.659c5.35-3.415 8.765-5.236 10.017-5.464 1.252-.285-2.447,2.504-2.562,3.528-.341.74.114,1.708 1.138,1.821 .854,0 4.839-1.423 4.496-.967-.454.455-5.009,2.276-6.828,3.699-2.106,1.195-3.529,2.561-4.896,3.87-.342-.513-.512-1.479-.74-2.447-.227-1.195-.513-2.389-.625-4.04z" fill="#404040" fill-rule="evenodd" stroke="#000" stroke-miterlimit="10" stroke-width=".036"/>
 <path d="m306.361,105.594c.683-1.992 7.114-5.634 8.31-5.862 1.023-.341-1.937,3.756-1.195,4.155 .854.285 5.634-2.675 5.975-2.049-.057.456-5.008,4.098-5.008,5.008 0,.796 5.464-.74 5.406,0-.17.74-4.381,2.504-6.031,3.528-1.822.74-2.902,1.65-4.155.968-1.482-1.024-4.042-3.756-3.302-5.748z" fill="#404040" fill-rule="evenodd" stroke="#000" stroke-miterlimit="10" stroke-width=".036"/>
 <path d="m304.313,93.13c5.121-3.13 8.252-4.553 9.39-4.895 1.024-.398-1.366,2.163-2.788,3.301-1.538,1.024-3.473,2.163-6.034,3.187-.17-.511-.341-1.023-.568-1.593z" fill="#a1a1a1" fill-rule="evenodd" stroke="#000" stroke-miterlimit="10" stroke-width=".036"/>
 <path d="m169.429,41.51c.397.342.854,1.025 1.366,1.594 .342.569 1.023,1.252 1.422,2.049 .342.797.455,1.65.57,2.789-.969.228-1.594,1.138-2.505,2.504-.739,1.252-2.277,5.122-2.446,5.691-.344.399.227-2.504.169-2.561-.397-.228-1.991,2.618-1.935,2.162-.113-.512 1.65-4.154 1.766-4.781 .057-.683-1.538.854-1.481.911-.057-.285.854-1.366.968-1.48 .058-.114-1.252,1.024-1.082.968-.055-.342.911-1.879.911-2.163-.228-.455-1.422.569-1.422,0 0-.796.683-2.276 1.422-3.585 .627-1.309 1.309-2.674 2.277-4.098z" fill="#a16121" fill-rule="evenodd"/>
 <path d="m170.168,42.592c-.968,1.309-1.707,2.163-1.765,2.561-.284.341.114.057.741-.626-1.025,1.593-1.652,2.562-1.652,2.902-.17,0 1.082-1.479 1.14-1.365-.058.056-.569.91-1.31,2.333 .514-.797 1.081-1.48 1.708-2.277 .625-.91.966-1.708 1.65-2.618-.17-.284-.34-.568-.512-.91z" fill="#7f4008" fill-rule="evenodd"/>
 <path d="m170.851,45.893c-.112-.057-1.195,1.423-1.479,2.219-.512.626-.739,1.423-.682,1.708 0,0 .797-1.195.854-.968-.172.057-1.367,2.391-1.197,2.391 .115-.114 1.252-2.049 1.65-2.504 .058-.513-.682-.058-.453-.398 .169-.513 1.195-2.505 1.307-2.448z" fill="#7f4008" fill-rule="evenodd"/>
</svg>
